<?xml version="1.0" standalone="no"?>
<!DOCTYPE svg PUBLIC "-//W3C//DTD SVG 20010904//EN"
 "http://www.w3.org/TR/2001/REC-SVG-20010904/DTD/svg10.dtd">
<svg version="1.0" xmlns="http://www.w3.org/2000/svg"
 width="512.000000pt" height="512.000000pt" viewBox="0 0 512.000000 512.000000"
 preserveAspectRatio="xMidYMid meet">
<metadata>
Created by potrace 1.14, written by Peter Selinger 2001-2017
</metadata>
<g transform="translate(0.000000,512.000000) scale(0.100000,-0.100000)"
fill="#000000" stroke="none">
<path d="M415 5110 c-22 -5 -60 -16 -85 -25 -150 -53 -285 -212 -319 -373 -16
-75 -16 -4229 0 -4304 29 -137 148 -293 269 -351 126 -61 -23 -57 2280 -57
2303 0 2154 -4 2280 57 121 58 240 214 269 351 16 75 16 4229 0 4304 -29 137
-148 293 -269 351 -127 61 23 57 -2280 56 -1158 -1 -2123 -5 -2145 -9z m465
-1695 c0 -437 3 -469 53 -575 36 -77 136 -181 213 -222 100 -54 244 -73 354
-47 182 42 345 212 380 398 6 31 10 225 10 452 l0 399 250 0 250 0 0 -424 c0
-473 -5 -532 -64 -687 -64 -172 -189 -340 -333 -449 -76 -57 -215 -131 -295
-156 l-58 -18 0 -393 0 -393 -255 0 -255 0 0 393 0 394 -42 12 c-210 63 -418
218 -543 406 -61 92 -96 165 -133 285 l-26 85 -4 473 -3 472 250 0 251 0 0
-405z m3092 378 c387 -108 648 -368 750 -748 32 -117 32 -344 0 -469 -29 -117
-79 -229 -146 -330 -56 -84 -182 -213 -256 -262 -22 -15 -39 -32 -36 -38 25
-61 269 -633 273 -639 2 -4 -118 -6 -267 -5 l-271 3 -108 250 -108 250 -42 0
c-22 -1 -149 -2 -281 -3 l-240 -2 0 -250 0 -250 -255 0 -255 0 0 1261 0 1260
583 -3 c558 -4 585 -5 659 -25z"/>
<path d="M3240 2806 l0 -506 238 0 c309 0 381 9 480 56 341 164 386 634 82
858 -119 88 -132 90 -487 94 l-313 3 0 -505z"/>
</g>
</svg>
