<svg id="svg" version="1.1" xmlns="http://www.w3.org/2000/svg" xmlns:xlink="http://www.w3.org/1999/xlink" width="400" height="400" viewBox="0, 0, 400,400"><g id="svgg"><path id="path0" d="M192.879 19.896 L 190.758 20.043 190.879 21.922 C 190.982 23.521,191.134 23.819,191.900 23.928 C 192.551 24.020,192.800 24.324,192.800 25.028 C 192.800 25.926,192.950 26.000,194.772 26.000 C 196.513 26.000,196.759 26.106,196.872 26.900 C 196.984 27.684,197.271 27.816,199.100 27.921 C 201.028 28.032,201.200 28.122,201.200 29.021 C 201.200 29.799,201.406 30.000,202.200 30.000 C 202.988 30.000,203.200 30.203,203.200 30.957 C 203.200 32.034,203.856 32.400,205.789 32.400 C 206.868 32.400,207.160 32.585,207.364 33.400 C 207.590 34.299,207.816 34.400,209.608 34.400 C 211.466 34.400,211.600 34.467,211.600 35.400 C 211.600 36.200,211.800 36.400,212.600 36.400 C 213.400 36.400,213.600 36.600,213.600 37.400 C 213.600 38.331,213.735 38.400,215.572 38.400 C 217.313 38.400,217.559 38.506,217.672 39.300 C 217.778 40.047,218.158 40.261,219.900 40.556 C 221.739 40.868,222.000 41.030,222.000 41.856 C 222.000 42.722,222.165 42.800,224.000 42.800 C 225.867 42.800,226.000 42.867,226.000 43.800 C 226.000 44.588,226.203 44.800,226.957 44.800 C 227.643 44.800,227.984 45.082,228.164 45.800 C 228.390 46.699,228.616 46.800,230.408 46.800 C 232.266 46.800,232.400 46.867,232.400 47.800 C 232.400 48.732,232.535 48.800,234.373 48.800 C 236.229 48.800,236.354 48.866,236.473 49.900 C 236.561 50.663,236.859 51.037,237.445 51.121 C 237.910 51.187,238.491 51.682,238.737 52.221 C 239.113 53.046,239.462 53.200,240.964 53.200 C 242.506 53.200,242.761 53.321,242.872 54.100 C 242.981 54.868,243.279 55.018,244.900 55.122 C 246.600 55.231,246.800 55.344,246.800 56.195 C 246.800 56.936,247.044 57.175,247.900 57.273 C 248.688 57.364,249.036 57.656,249.128 58.300 C 249.241 59.094,249.487 59.200,251.228 59.200 C 253.039 59.200,253.200 59.278,253.200 60.153 C 253.200 61.162,254.042 61.584,256.072 61.595 C 256.877 61.599,257.176 61.824,257.272 62.500 C 257.363 63.138,257.713 63.436,258.475 63.524 C 259.228 63.611,259.588 63.911,259.675 64.524 C 259.781 65.264,260.095 65.419,261.700 65.522 C 263.415 65.632,263.600 65.739,263.600 66.622 C 263.600 67.529,263.745 67.600,265.600 67.600 C 267.467 67.600,267.600 67.667,267.600 68.600 C 267.600 69.545,267.720 69.600,269.800 69.600 C 271.978 69.600,272.000 69.612,272.000 70.800 C 272.000 71.804,272.159 72.000,272.972 72.000 C 273.676 72.000,273.980 72.249,274.072 72.900 C 274.181 73.666,274.479 73.818,276.075 73.921 C 277.656 74.023,277.969 74.179,278.075 74.921 C 278.183 75.680,278.486 75.816,280.300 75.921 C 282.228 76.032,282.400 76.122,282.400 77.021 C 282.400 77.799,282.606 78.000,283.400 78.000 C 284.200 78.000,284.400 78.200,284.400 79.000 C 284.400 79.918,284.547 80.000,286.190 80.000 C 287.774 80.000,288.051 80.138,288.600 81.200 C 289.149 82.262,289.426 82.400,291.010 82.400 C 292.653 82.400,292.800 82.482,292.800 83.400 C 292.800 84.192,293.002 84.400,293.772 84.400 C 294.476 84.400,294.780 84.649,294.872 85.300 C 294.981 86.063,295.304 86.230,297.000 86.400 C 298.696 86.570,299.019 86.737,299.128 87.500 C 299.241 88.294,299.487 88.400,301.228 88.400 C 303.041 88.400,303.200 88.477,303.200 89.357 C 303.200 90.437,303.856 90.800,305.805 90.800 C 306.889 90.800,307.169 90.971,307.272 91.700 C 307.364 92.344,307.712 92.636,308.500 92.727 C 309.364 92.826,309.600 93.062,309.600 93.827 C 309.600 94.728,309.748 94.800,311.600 94.800 C 313.467 94.800,313.600 94.867,313.600 95.800 C 313.600 96.733,313.733 96.800,315.600 96.800 C 317.467 96.800,317.600 96.867,317.600 97.800 C 317.600 98.644,317.787 98.800,318.800 98.800 C 319.809 98.800,320.000 98.957,320.000 99.786 C 320.000 100.666,320.213 100.801,321.979 101.035 C 323.591 101.249,323.980 101.455,324.079 102.149 C 324.180 102.858,324.514 103.020,326.075 103.121 C 327.656 103.223,327.969 103.379,328.075 104.121 C 328.163 104.743,328.521 105.037,329.300 105.127 C 330.164 105.226,330.400 105.462,330.400 106.227 C 330.400 107.128,330.548 107.200,332.400 107.200 C 334.267 107.200,334.400 107.267,334.400 108.200 C 334.400 109.132,334.535 109.200,336.373 109.200 C 338.229 109.200,338.354 109.266,338.473 110.300 C 338.573 111.164,338.836 111.427,339.700 111.527 C 340.452 111.613,340.800 111.884,340.800 112.384 C 340.800 113.244,341.561 113.600,343.405 113.600 C 344.489 113.600,344.769 113.771,344.872 114.500 C 344.992 115.342,345.193 115.400,348.000 115.400 L 351.000 115.400 351.000 94.800 L 351.000 74.200 349.900 74.073 C 349.036 73.974,348.800 73.738,348.800 72.973 C 348.800 72.072,348.652 72.000,346.800 72.000 C 344.933 72.000,344.800 71.933,344.800 71.000 C 344.800 70.200,344.600 70.000,343.800 70.000 C 343.104 70.000,342.800 69.781,342.800 69.280 C 342.800 68.129,341.965 67.600,340.148 67.600 C 338.698 67.600,338.437 67.471,338.328 66.700 C 338.219 65.932,337.921 65.782,336.300 65.678 C 334.585 65.568,334.400 65.461,334.400 64.578 C 334.400 63.803,334.194 63.600,333.408 63.600 C 332.683 63.600,332.348 63.331,332.164 62.600 C 331.939 61.704,331.710 61.600,329.957 61.600 C 328.157 61.600,328.000 61.523,328.000 60.638 C 328.000 59.787,327.769 59.643,326.023 59.403 C 324.405 59.181,324.024 58.974,323.923 58.266 C 323.817 57.522,323.503 57.383,321.700 57.279 C 319.772 57.168,319.600 57.078,319.600 56.179 C 319.600 55.401,319.394 55.200,318.600 55.200 C 317.800 55.200,317.600 55.000,317.600 54.200 C 317.600 53.267,317.467 53.200,315.600 53.200 C 313.733 53.200,313.600 53.133,313.600 52.200 C 313.600 51.256,313.478 51.200,311.427 51.200 C 309.353 51.200,309.247 51.150,309.127 50.100 C 309.037 49.323,308.743 48.963,308.125 48.875 C 307.579 48.798,307.202 48.421,307.125 47.875 C 307.020 47.138,306.704 46.981,305.125 46.879 C 303.544 46.777,303.231 46.621,303.125 45.879 C 303.017 45.120,302.714 44.984,300.900 44.879 C 298.972 44.768,298.800 44.678,298.800 43.779 C 298.800 42.871,298.655 42.800,296.800 42.800 C 294.933 42.800,294.800 42.733,294.800 41.800 C 294.800 41.000,294.600 40.800,293.800 40.800 C 293.073 40.800,292.800 40.586,292.800 40.014 C 292.800 39.020,291.658 38.400,289.826 38.400 C 288.572 38.400,288.400 38.280,288.400 37.400 C 288.400 36.467,288.267 36.400,286.400 36.400 C 284.533 36.400,284.400 36.333,284.400 35.400 C 284.400 34.612,284.197 34.400,283.443 34.400 C 282.757 34.400,282.416 34.118,282.236 33.400 C 282.010 32.501,281.784 32.400,279.992 32.400 C 278.134 32.400,278.000 32.333,278.000 31.400 C 278.000 30.468,277.865 30.400,276.027 30.400 C 274.171 30.400,274.046 30.334,273.927 29.300 C 273.838 28.529,273.542 28.163,272.938 28.077 C 272.413 28.002,271.979 27.572,271.830 26.977 C 271.611 26.105,271.372 26.000,269.592 26.000 C 267.734 26.000,267.600 25.933,267.600 25.000 C 267.600 24.067,267.467 24.000,265.600 24.000 C 263.733 24.000,263.600 23.933,263.600 23.000 C 263.600 22.055,263.480 22.000,261.400 22.000 C 259.355 22.000,259.200 21.934,259.200 21.056 C 259.200 20.215,258.969 20.084,257.100 19.859 C 254.935 19.599,196.663 19.632,192.879 19.896 M314.300 257.632 C 313.915 257.856,313.600 258.301,313.600 258.620 C 313.600 258.985,313.192 259.202,312.500 259.205 C 310.606 259.215,309.676 259.642,309.432 260.616 C 309.232 261.413,308.907 261.575,307.298 261.678 C 305.679 261.782,305.381 261.932,305.272 262.700 C 305.180 263.351,304.876 263.600,304.172 263.600 C 303.407 263.600,303.200 263.809,303.200 264.579 C 303.200 265.478,303.028 265.568,301.100 265.679 C 299.307 265.782,299.000 265.917,299.000 266.600 C 299.000 267.198,298.697 267.428,297.800 267.510 C 295.259 267.742,294.800 267.975,294.800 269.033 C 294.800 269.762,294.602 270.030,294.100 269.979 C 291.656 269.730,290.800 269.995,290.800 271.000 C 290.800 271.844,290.613 272.000,289.600 272.000 C 288.940 272.000,288.421 272.135,288.447 272.300 C 288.675 273.743,288.366 274.000,286.400 274.000 C 284.533 274.000,284.400 274.067,284.400 275.000 C 284.400 275.933,284.267 276.000,282.400 276.000 C 280.533 276.000,280.400 276.067,280.400 277.000 C 280.400 277.840,280.212 278.000,279.226 278.000 C 277.377 278.000,276.000 278.679,276.000 279.590 C 276.000 280.187,275.737 280.400,275.000 280.400 C 274.200 280.400,274.000 280.600,274.000 281.400 C 274.000 282.333,273.867 282.400,272.000 282.400 C 270.133 282.400,270.000 282.467,270.000 283.400 C 270.000 284.333,269.866 284.400,268.008 284.400 C 266.216 284.400,265.990 284.501,265.764 285.400 C 265.560 286.215,265.268 286.400,264.189 286.400 C 262.347 286.400,261.600 286.759,261.600 287.643 C 261.600 288.126,261.319 288.400,260.824 288.400 C 259.989 288.400,259.428 289.035,259.411 290.000 C 259.403 290.440,258.840 290.632,257.300 290.721 C 255.385 290.831,255.200 290.926,255.200 291.799 C 255.200 292.657,255.003 292.769,253.300 292.878 C 251.695 292.981,251.381 293.136,251.275 293.876 C 251.188 294.489,250.828 294.789,250.075 294.876 C 249.321 294.963,248.963 295.263,248.875 295.879 C 248.769 296.621,248.456 296.777,246.875 296.879 C 245.314 296.980,244.980 297.142,244.879 297.851 C 244.780 298.545,244.391 298.751,242.779 298.965 C 241.013 299.199,240.800 299.334,240.800 300.214 C 240.800 301.130,240.659 301.200,238.808 301.200 C 237.016 301.200,236.790 301.301,236.564 302.200 C 236.384 302.918,236.043 303.200,235.357 303.200 C 234.603 303.200,234.400 303.412,234.400 304.200 C 234.400 305.133,234.267 305.200,232.400 305.200 C 230.533 305.200,230.400 305.267,230.400 306.200 C 230.400 307.097,230.238 307.200,228.833 307.200 C 226.665 307.200,226.000 307.532,226.000 308.615 C 226.000 309.274,225.738 309.582,225.100 309.672 C 223.788 309.859,223.775 312.814,225.084 313.388 C 225.570 313.601,226.020 314.141,226.084 314.588 C 226.181 315.267,226.543 315.420,228.300 315.521 C 230.228 315.632,230.400 315.722,230.400 316.621 C 230.400 317.529,230.545 317.600,232.400 317.600 C 234.267 317.600,234.400 317.667,234.400 318.600 C 234.400 319.532,234.535 319.600,236.373 319.600 C 238.229 319.600,238.354 319.666,238.473 320.700 C 238.572 321.557,238.838 321.827,239.675 321.924 C 240.428 322.011,240.788 322.311,240.875 322.924 C 240.980 323.662,241.296 323.819,242.875 323.921 C 244.456 324.023,244.769 324.179,244.875 324.921 C 244.980 325.662,245.293 325.819,246.875 325.921 C 248.456 326.023,248.769 326.179,248.875 326.921 C 248.963 327.543,249.321 327.837,250.100 327.927 C 250.964 328.026,251.200 328.262,251.200 329.027 C 251.200 329.928,251.348 330.000,253.200 330.000 C 255.043 330.000,255.200 330.075,255.200 330.957 C 255.200 332.715,260.893 333.211,261.427 331.500 C 261.802 330.300,262.314 330.013,264.100 330.006 C 265.423 330.001,265.600 329.884,265.600 329.022 C 265.600 328.139,265.785 328.032,267.500 327.922 C 269.105 327.819,269.419 327.664,269.525 326.924 C 269.612 326.311,269.972 326.011,270.725 325.924 C 271.479 325.837,271.837 325.537,271.925 324.921 C 272.031 324.179,272.344 324.023,273.925 323.921 C 275.486 323.820,275.820 323.658,275.921 322.949 C 276.020 322.255,276.409 322.049,278.021 321.835 C 279.787 321.601,280.000 321.466,280.000 320.586 C 280.000 319.757,280.191 319.600,281.200 319.600 C 282.213 319.600,282.400 319.444,282.400 318.600 C 282.400 317.667,282.533 317.600,284.400 317.600 C 286.255 317.600,286.400 317.529,286.400 316.622 C 286.400 315.739,286.585 315.632,288.300 315.522 C 289.905 315.419,290.219 315.264,290.325 314.524 C 290.412 313.911,290.772 313.611,291.525 313.524 C 292.279 313.437,292.637 313.137,292.725 312.521 C 292.831 311.779,293.144 311.623,294.725 311.521 C 296.438 311.410,296.611 311.305,296.727 310.300 C 296.845 309.268,296.974 309.200,298.799 309.200 C 300.512 309.200,300.760 309.092,300.872 308.300 C 300.981 307.537,301.304 307.370,303.000 307.200 C 304.696 307.030,305.019 306.863,305.128 306.100 C 305.220 305.449,305.524 305.200,306.228 305.200 C 306.998 305.200,307.200 304.992,307.200 304.200 C 307.200 303.267,307.334 303.200,309.192 303.200 C 310.964 303.200,311.212 303.093,311.426 302.237 C 311.621 301.464,312.036 301.207,313.534 300.935 C 315.037 300.661,315.425 300.420,315.528 299.698 C 315.620 299.049,315.925 298.800,316.628 298.800 C 317.393 298.800,317.600 298.591,317.600 297.821 C 317.600 296.922,317.772 296.832,319.700 296.721 C 321.529 296.616,321.816 296.484,321.928 295.700 C 322.031 294.971,322.311 294.800,323.395 294.800 C 325.253 294.800,326.000 294.443,326.000 293.557 C 326.000 293.016,326.286 292.800,327.000 292.800 C 327.800 292.800,328.000 292.600,328.000 291.800 C 328.000 291.014,328.203 290.800,328.950 290.800 C 331.272 290.800,332.400 290.326,332.400 289.350 C 332.400 288.477,332.561 288.400,334.400 288.400 C 336.255 288.400,336.400 288.329,336.400 287.422 C 336.400 286.539,336.585 286.432,338.300 286.322 C 339.905 286.219,340.219 286.064,340.325 285.324 C 340.412 284.711,340.772 284.411,341.525 284.324 C 342.287 284.236,342.637 283.938,342.728 283.300 C 342.831 282.571,343.111 282.400,344.195 282.400 C 346.654 282.400,346.800 282.207,346.800 278.957 C 346.800 276.070,346.776 276.000,345.800 276.000 C 345.000 276.000,344.800 275.800,344.800 275.000 C 344.800 274.067,344.667 274.000,342.800 274.000 C 341.700 274.000,340.778 273.820,340.750 273.600 C 340.723 273.380,340.678 272.975,340.650 272.700 C 340.623 272.425,340.105 272.143,339.500 272.073 C 338.636 271.974,338.400 271.738,338.400 270.973 C 338.400 270.001,337.533 269.737,335.129 269.974 C 334.670 270.020,334.416 269.686,334.329 268.920 C 334.208 267.870,334.069 267.792,332.100 267.679 C 330.172 267.568,330.000 267.478,330.000 266.579 C 330.000 265.801,329.794 265.600,329.000 265.600 C 328.200 265.600,328.000 265.400,328.000 264.600 C 328.000 263.669,327.865 263.600,326.028 263.600 C 324.287 263.600,324.041 263.494,323.928 262.700 C 323.816 261.916,323.529 261.784,321.700 261.679 C 319.776 261.568,319.600 261.477,319.600 260.587 C 319.600 259.884,319.323 259.546,318.600 259.364 C 318.003 259.214,317.600 258.827,317.600 258.403 C 317.600 257.351,315.589 256.881,314.300 257.632 " stroke="none" fill="#3c64b3" fill-rule="evenodd"></path><path id="path1" d="M176.180 21.000 C 176.285 21.956,176.196 22.000,174.145 22.000 C 172.124 22.000,172.000 22.058,172.000 23.000 C 172.000 23.882,171.830 24.000,170.557 24.000 C 169.519 24.000,169.172 24.150,169.319 24.533 C 169.432 24.827,169.288 25.067,169.000 25.067 C 168.708 25.067,168.561 24.786,168.668 24.433 C 168.813 23.957,168.748 23.975,168.409 24.503 C 168.160 24.890,168.070 25.389,168.208 25.613 C 168.346 25.837,168.311 25.994,168.130 25.963 C 167.948 25.931,167.665 25.949,167.500 26.003 C 167.335 26.056,166.975 26.123,166.700 26.150 C 166.425 26.177,166.022 26.605,165.805 27.100 C 165.455 27.899,164.367 28.268,163.058 28.033 C 162.577 27.947,161.574 28.834,161.778 29.164 C 162.193 29.836,161.192 30.427,159.511 30.502 C 157.987 30.570,157.704 30.704,157.820 31.302 C 157.896 31.698,157.788 31.916,157.579 31.787 C 157.371 31.658,157.200 31.743,157.200 31.976 C 157.200 32.209,156.731 32.400,156.157 32.400 C 155.450 32.400,155.181 32.572,155.320 32.936 C 155.673 33.856,154.999 34.417,153.471 34.474 C 152.662 34.505,151.997 34.725,151.994 34.965 C 151.991 35.204,151.813 35.130,151.600 34.800 C 151.298 34.332,151.211 34.443,151.206 35.300 C 151.201 36.179,151.015 36.400,150.280 36.400 C 149.774 36.400,149.118 36.625,148.821 36.900 C 148.386 37.304,148.343 37.294,148.597 36.848 C 148.812 36.470,148.736 36.360,148.356 36.498 C 148.050 36.609,147.845 36.903,147.900 37.150 C 147.955 37.398,147.798 37.555,147.550 37.500 C 147.303 37.445,147.009 37.650,146.898 37.956 C 146.763 38.328,146.865 38.407,147.210 38.194 C 147.535 37.993,147.625 38.036,147.455 38.311 C 147.308 38.549,146.736 38.663,146.185 38.563 C 145.333 38.408,145.148 38.562,144.942 39.591 C 144.733 40.636,144.517 40.807,143.350 40.850 C 141.167 40.931,141.002 40.975,140.950 41.500 C 140.922 41.775,140.878 42.180,140.850 42.400 C 140.822 42.620,140.170 42.800,139.400 42.800 C 138.630 42.800,138.000 43.002,138.000 43.249 C 138.000 43.542,137.764 43.507,137.323 43.149 C 136.863 42.776,136.743 42.760,136.947 43.100 C 137.112 43.375,137.057 43.600,136.824 43.600 C 136.591 43.600,136.400 43.791,136.400 44.024 C 136.400 44.257,136.625 44.320,136.900 44.165 C 137.286 43.947,137.293 43.999,136.930 44.391 C 136.671 44.671,135.986 44.900,135.406 44.900 C 134.744 44.900,134.422 45.080,134.539 45.386 C 134.886 46.290,134.144 46.827,132.368 46.957 C 130.918 47.063,130.577 47.241,130.472 47.943 C 130.402 48.414,130.087 48.822,129.772 48.850 C 128.674 48.946,128.465 49.002,128.194 49.272 C 128.044 49.422,127.698 49.459,127.425 49.354 C 127.152 49.249,126.697 49.442,126.415 49.782 C 126.039 50.234,126.029 50.400,126.375 50.400 C 127.277 50.400,126.410 51.098,125.208 51.338 C 124.341 51.512,124.000 51.809,124.000 52.390 C 124.000 53.189,122.941 53.452,120.676 53.217 C 120.276 53.175,119.984 53.378,120.023 53.671 C 120.184 54.859,119.940 55.155,118.700 55.275 C 117.806 55.361,117.433 55.587,117.506 56.000 C 117.594 56.502,117.529 56.495,117.106 55.960 C 116.738 55.495,116.480 55.440,116.160 55.760 C 115.840 56.080,115.895 56.338,116.360 56.706 C 116.712 56.984,116.820 57.171,116.600 57.121 C 115.846 56.951,113.547 57.590,113.747 57.914 C 114.142 58.554,113.270 59.297,111.947 59.447 C 109.974 59.671,109.600 59.885,109.600 60.787 C 109.600 61.469,109.342 61.600,108.000 61.600 C 106.990 61.600,106.398 61.784,106.394 62.100 C 106.389 62.468,106.297 62.457,106.044 62.057 C 105.779 61.640,105.630 61.627,105.399 62.002 C 105.231 62.273,105.337 62.638,105.638 62.823 C 106.226 63.187,105.835 63.420,104.200 63.681 C 103.728 63.756,103.348 64.175,103.272 64.704 C 103.154 65.536,101.339 65.976,99.451 65.631 C 99.259 65.596,99.202 65.828,99.324 66.146 C 99.521 66.659,98.161 68.355,97.758 68.100 C 97.382 67.862,96.770 68.028,96.950 68.319 C 97.379 69.013,96.412 69.697,94.731 69.886 C 93.323 70.045,92.952 70.249,92.903 70.888 C 92.823 71.951,92.839 71.942,90.843 72.059 C 89.490 72.139,89.019 72.359,88.700 73.060 C 88.475 73.554,87.910 74.013,87.445 74.079 C 86.921 74.154,86.551 74.542,86.472 75.100 C 86.346 75.986,85.371 76.252,83.100 76.021 C 82.597 75.970,82.400 76.238,82.400 76.975 C 82.400 77.990,82.152 78.120,80.252 78.103 C 79.349 78.095,77.875 79.474,78.209 80.015 C 78.342 80.230,77.907 80.400,77.224 80.400 C 76.193 80.400,76.000 80.554,76.000 81.377 C 76.000 82.240,75.802 82.368,74.300 82.477 C 72.987 82.572,72.510 82.805,72.205 83.500 C 71.829 84.356,70.816 84.629,68.749 84.429 C 68.058 84.363,67.445 85.426,67.822 86.036 C 67.946 86.236,67.497 86.400,66.824 86.400 C 65.785 86.400,65.600 86.551,65.600 87.400 C 65.600 88.069,65.368 88.415,64.900 88.445 C 64.515 88.469,63.660 88.514,63.000 88.545 C 62.005 88.591,61.778 88.788,61.673 89.700 C 61.557 90.716,61.411 90.800,59.773 90.800 C 58.792 90.800,58.000 90.989,58.000 91.224 C 58.000 91.457,57.808 91.529,57.573 91.383 C 57.317 91.225,57.197 91.416,57.273 91.860 C 57.367 92.409,57.117 92.633,56.300 92.727 C 55.436 92.826,55.200 93.062,55.200 93.827 C 55.200 94.713,55.040 94.800,53.408 94.800 C 51.829 94.800,51.585 94.919,51.364 95.800 C 51.162 96.606,50.850 96.810,49.757 96.850 C 47.627 96.928,46.604 97.359,47.005 98.008 C 47.206 98.334,45.650 99.420,45.200 99.268 C 45.090 99.230,45.000 108.605,45.000 120.100 C 45.000 134.886,45.127 140.977,45.433 140.922 C 45.672 140.879,45.867 141.087,45.867 141.384 C 45.867 141.701,45.605 141.835,45.233 141.708 C 44.817 141.566,44.874 141.712,45.400 142.133 C 46.316 142.868,47.436 142.989,47.804 142.393 C 47.942 142.170,48.227 142.093,48.438 142.223 C 48.648 142.353,48.794 142.311,48.763 142.130 C 48.556 140.943,48.850 140.362,49.544 140.582 C 49.952 140.712,50.477 140.589,50.710 140.309 C 51.127 139.806,51.200 139.581,51.200 138.800 C 51.200 138.580,51.815 138.400,52.567 138.400 C 54.452 138.400,55.200 138.047,55.200 137.157 C 55.200 136.558,55.493 136.400,56.600 136.400 C 57.867 136.400,58.200 136.105,58.052 135.114 C 58.029 134.957,58.277 134.932,58.605 135.057 C 58.932 135.183,59.200 135.098,59.200 134.869 C 59.200 134.640,59.679 134.396,60.264 134.327 C 60.934 134.247,61.368 133.927,61.434 133.463 C 61.581 132.440,61.670 132.392,63.609 132.271 C 64.924 132.189,65.354 131.991,65.437 131.430 C 65.603 130.298,66.151 129.955,67.900 129.886 C 69.323 129.830,69.498 129.716,69.410 128.911 C 69.324 128.124,69.493 128.000,70.655 128.000 C 71.395 128.000,71.979 127.865,71.953 127.700 C 71.725 126.257,72.034 126.000,74.000 126.000 C 75.867 126.000,76.000 125.933,76.000 125.000 C 76.000 124.206,76.202 124.000,76.976 124.000 C 77.513 124.000,78.076 123.801,78.226 123.557 C 78.416 123.251,78.580 123.245,78.761 123.536 C 78.927 123.806,79.233 123.824,79.611 123.585 C 80.003 123.337,80.034 123.210,79.704 123.206 C 79.360 123.202,79.405 122.970,79.850 122.450 C 80.224 122.013,80.808 121.782,81.246 121.896 C 81.661 122.005,82.023 121.892,82.050 121.647 C 82.078 121.401,82.145 121.020,82.200 120.800 C 82.255 120.580,82.323 120.220,82.350 120.000 C 82.377 119.780,83.207 119.600,84.192 119.600 C 85.771 119.600,86.015 119.481,86.236 118.600 C 86.434 117.808,86.739 117.600,87.699 117.600 C 88.369 117.600,89.169 117.287,89.486 116.900 C 89.801 116.515,89.928 116.453,89.768 116.762 C 89.570 117.144,89.633 117.227,89.965 117.021 C 90.234 116.855,90.358 116.467,90.240 116.160 C 90.049 115.663,91.215 115.350,92.500 115.553 C 92.665 115.579,92.800 115.150,92.800 114.600 C 92.800 113.767,93.000 113.592,94.000 113.550 C 94.660 113.522,95.515 113.480,95.900 113.455 C 96.305 113.429,96.690 112.987,96.813 112.405 C 96.956 111.731,97.254 111.439,97.718 111.519 C 98.099 111.584,98.517 111.360,98.647 111.021 C 98.778 110.680,99.089 110.533,99.342 110.691 C 100.532 111.435,101.030 110.923,100.280 109.725 C 100.075 109.395,100.447 109.211,101.492 109.125 C 102.693 109.025,103.025 108.821,103.125 108.122 C 103.227 107.401,103.551 107.222,104.925 107.122 C 106.212 107.028,106.691 106.792,106.995 106.100 C 107.249 105.521,107.737 105.200,108.363 105.200 C 108.899 105.200,109.674 104.895,110.086 104.522 C 110.794 103.881,110.821 103.886,110.587 104.622 C 110.361 105.333,110.378 105.340,110.791 104.697 C 111.040 104.310,111.133 103.815,110.998 103.597 C 110.863 103.379,111.123 103.178,111.576 103.150 C 113.232 103.049,113.401 102.991,113.450 102.500 C 113.478 102.225,113.522 101.772,113.550 101.493 C 113.582 101.171,114.134 101.011,115.066 101.055 C 117.071 101.149,117.600 100.878,117.600 99.757 C 117.600 98.782,117.768 98.724,120.656 98.695 C 121.497 98.686,121.648 98.233,121.103 97.360 C 120.927 97.080,121.256 96.909,122.008 96.887 C 123.531 96.844,124.000 96.535,124.000 95.576 C 124.000 94.841,125.458 94.505,127.500 94.770 C 127.786 94.807,128.000 94.400,128.000 93.818 C 128.000 92.792,128.347 92.630,130.234 92.776 C 131.226 92.852,132.192 91.835,131.773 91.156 C 131.585 90.852,131.646 90.781,131.938 90.962 C 132.192 91.119,132.400 91.046,132.400 90.800 C 132.400 90.554,132.564 90.454,132.764 90.578 C 133.461 91.008,134.400 90.308,134.400 89.357 C 134.400 88.475,134.557 88.400,136.400 88.400 C 138.267 88.400,138.400 88.333,138.400 87.400 C 138.400 86.524,138.573 86.400,139.800 86.400 C 140.650 86.400,141.202 86.204,141.206 85.900 C 141.211 85.506,141.281 85.508,141.534 85.908 C 141.769 86.276,142.004 86.140,142.396 85.408 C 142.712 84.818,143.286 84.400,143.782 84.400 C 144.358 84.400,144.650 84.129,144.693 83.555 C 144.776 82.465,144.843 82.412,146.232 82.349 C 148.200 82.259,148.744 81.998,148.875 81.081 C 148.972 80.397,149.312 80.170,150.397 80.067 C 151.165 79.995,151.927 79.725,152.090 79.467 C 152.296 79.143,152.392 79.184,152.400 79.600 C 152.411 80.133,152.455 80.133,152.800 79.600 C 153.330 78.781,153.298 78.292,152.738 78.638 C 152.452 78.815,152.385 78.748,152.562 78.462 C 152.719 78.208,153.377 78.000,154.024 78.000 C 155.005 78.000,155.200 77.838,155.200 77.022 C 155.200 76.139,155.385 76.032,157.100 75.922 C 158.689 75.820,159.020 75.660,159.122 74.946 C 159.246 74.078,161.022 73.403,162.096 73.816 C 162.374 73.922,162.852 73.602,163.157 73.105 L 163.713 72.200 162.757 72.997 L 161.800 73.794 162.758 72.709 C 163.285 72.113,163.854 71.710,164.022 71.814 C 164.669 72.213,165.600 71.471,165.600 70.557 C 165.600 69.675,165.757 69.600,167.600 69.600 C 169.467 69.600,169.600 69.533,169.600 68.600 C 169.600 67.574,169.753 67.519,172.689 67.496 C 173.179 67.492,173.483 67.334,173.366 67.145 C 173.249 66.955,173.343 66.800,173.576 66.800 C 173.809 66.800,174.000 66.609,174.000 66.376 C 174.000 66.143,173.775 66.080,173.500 66.235 C 173.158 66.428,173.127 66.383,173.400 66.093 C 173.620 65.859,174.250 65.607,174.800 65.534 C 175.480 65.443,175.841 65.112,175.928 64.500 C 176.042 63.694,176.281 63.600,178.200 63.600 C 180.119 63.600,180.358 63.694,180.472 64.500 C 180.605 65.434,180.686 65.467,183.000 65.550 C 184.213 65.593,184.400 65.733,184.400 66.600 C 184.400 67.372,184.606 67.600,185.304 67.600 C 185.801 67.600,186.444 67.979,186.733 68.442 C 187.118 69.058,187.127 69.202,186.768 68.980 C 186.453 68.785,186.379 68.842,186.562 69.138 C 186.719 69.392,187.737 69.600,188.824 69.600 C 190.513 69.600,190.800 69.713,190.800 70.376 C 190.800 71.305,191.443 71.780,192.800 71.855 C 193.350 71.886,194.025 71.931,194.300 71.955 C 194.575 71.980,194.800 72.421,194.800 72.935 C 194.800 73.772,194.997 73.878,196.673 73.941 C 198.776 74.021,198.819 74.042,198.966 75.063 C 199.032 75.527,199.466 75.847,200.136 75.927 C 201.149 76.047,201.376 76.374,201.230 77.500 C 201.185 77.846,201.829 78.000,203.327 78.000 C 205.360 78.000,205.484 78.056,205.387 78.940 C 205.300 79.729,205.471 79.886,206.442 79.914 C 208.343 79.968,209.184 80.396,209.447 81.444 C 209.595 82.035,209.958 82.409,210.348 82.371 C 212.555 82.157,213.600 82.421,213.600 83.192 C 213.600 83.704,213.954 84.074,214.600 84.236 C 215.507 84.463,215.671 84.670,215.566 85.455 C 215.501 85.941,216.444 86.271,218.085 86.335 C 219.981 86.409,220.022 86.433,220.104 87.527 C 220.138 87.977,220.264 88.336,220.383 88.325 C 222.771 88.108,224.000 88.459,224.000 89.357 C 224.000 90.282,224.934 91.012,225.594 90.604 C 225.998 90.354,226.482 91.544,226.178 92.036 C 226.054 92.236,226.098 92.419,226.276 92.443 C 226.579 92.483,228.182 92.629,229.632 92.748 C 229.980 92.777,230.506 93.251,230.801 93.802 C 231.096 94.353,231.531 94.781,231.769 94.754 C 233.515 94.555,234.328 94.860,234.564 95.800 C 234.785 96.681,235.029 96.800,236.608 96.800 C 238.354 96.800,238.670 97.092,238.447 98.500 C 238.421 98.665,238.940 98.800,239.600 98.800 C 240.260 98.800,240.822 98.980,240.850 99.200 C 240.878 99.420,240.923 99.765,240.950 99.967 C 241.036 100.596,241.404 100.780,242.982 100.982 C 244.732 101.206,244.821 101.264,244.968 102.261 C 245.050 102.822,245.488 103.025,246.825 103.118 C 248.782 103.255,248.988 103.370,248.995 104.328 C 248.999 104.856,249.451 105.026,251.100 105.121 C 253.028 105.232,253.200 105.322,253.200 106.221 C 253.200 107.046,253.392 107.200,254.424 107.200 C 255.220 107.200,255.551 107.355,255.372 107.645 C 255.221 107.889,255.346 108.247,255.649 108.439 C 256.107 108.729,256.098 108.800,255.600 108.859 C 255.270 108.898,255.983 109.036,257.184 109.165 C 259.088 109.370,259.398 109.527,259.599 110.386 C 259.796 111.230,260.074 111.380,261.524 111.429 C 263.460 111.494,263.619 111.591,263.707 112.765 C 263.745 113.271,263.977 113.541,264.274 113.427 C 264.887 113.192,266.096 114.320,265.780 114.832 C 265.655 115.035,265.608 115.213,265.676 115.228 C 265.744 115.244,266.699 115.350,267.798 115.463 C 269.844 115.675,270.484 116.117,270.120 117.064 C 269.965 117.469,270.414 117.600,271.957 117.600 C 273.858 117.600,274.000 117.668,274.000 118.579 C 274.000 119.478,274.172 119.568,276.094 119.679 C 278.027 119.791,278.189 119.877,278.194 120.800 C 278.199 121.595,278.404 121.802,279.196 121.808 C 279.871 121.813,280.238 122.071,280.335 122.608 C 280.413 123.043,280.667 123.580,280.898 123.800 C 281.186 124.075,281.218 124.013,281.000 123.600 C 280.742 123.112,280.784 123.094,281.221 123.500 C 281.518 123.775,282.455 124.000,283.304 124.000 C 284.239 124.000,284.749 124.159,284.598 124.403 C 284.195 125.056,285.293 125.821,286.784 125.927 C 288.101 126.021,288.946 126.640,288.576 127.239 C 288.314 127.663,289.492 128.000,291.233 128.000 C 292.638 128.000,292.800 128.103,292.800 129.000 C 292.800 129.800,293.000 130.000,293.800 130.000 C 294.715 130.000,295.034 130.518,294.847 131.700 C 294.821 131.865,295.025 132.027,295.300 132.061 C 295.575 132.094,295.980 132.164,296.200 132.215 C 296.420 132.266,297.179 132.328,297.887 132.354 C 298.787 132.386,299.113 132.561,298.969 132.936 C 298.788 133.409,299.903 134.759,300.261 134.500 C 301.127 133.875,303.200 134.510,303.200 135.400 C 303.200 136.200,303.400 136.400,304.200 136.400 C 304.750 136.400,305.200 136.593,305.200 136.829 C 305.200 137.719,306.400 138.400,307.971 138.400 C 309.342 138.400,309.600 138.529,309.600 139.213 C 309.600 140.089,310.200 140.444,311.912 140.583 C 313.437 140.707,314.574 141.245,314.026 141.584 C 313.324 142.018,315.426 142.958,316.273 142.590 C 316.673 142.415,317.180 142.314,317.400 142.365 C 317.620 142.416,317.575 142.228,317.300 141.949 C 316.595 141.231,316.675 140.980,317.632 140.908 C 318.752 140.823,319.600 140.066,319.600 139.151 C 319.600 138.472,321.202 138.085,322.900 138.353 C 323.065 138.379,323.200 138.209,323.200 137.976 C 323.200 137.743,323.384 137.667,323.610 137.806 C 323.835 137.945,323.994 137.911,323.963 137.730 C 323.795 136.766,324.109 136.400,325.104 136.400 C 325.735 136.400,326.682 135.960,327.314 135.374 C 327.923 134.810,328.776 134.322,329.210 134.289 C 329.749 134.249,330.000 133.939,330.000 133.315 C 330.000 132.386,330.207 132.318,333.100 132.297 C 333.901 132.291,334.170 131.967,334.060 131.138 C 333.981 130.537,335.252 129.943,336.743 129.884 C 337.622 129.849,338.332 129.726,338.323 129.610 C 338.225 128.436,338.505 128.000,339.357 128.000 C 340.308 128.000,341.008 127.061,340.578 126.364 C 340.453 126.162,341.350 126.000,342.594 126.000 C 344.155 126.000,344.815 125.848,344.770 125.500 C 344.620 124.340,344.856 124.000,345.814 124.000 C 346.811 124.000,346.828 123.950,346.758 121.189 C 346.681 118.142,346.532 117.919,344.428 117.704 C 342.972 117.554,342.634 117.386,342.550 116.767 C 342.523 116.565,342.478 116.220,342.450 116.000 C 342.423 115.780,341.950 115.600,341.400 115.600 C 340.469 115.600,340.227 115.263,340.358 114.151 C 340.390 113.881,339.684 113.687,338.591 113.665 C 336.433 113.622,336.036 113.430,336.176 112.498 C 336.262 111.932,335.895 111.762,334.241 111.600 C 332.401 111.420,332.212 111.311,332.325 110.500 C 332.446 109.631,332.089 109.434,330.500 109.493 C 330.225 109.503,330.000 109.353,330.000 109.160 C 330.000 108.183,328.539 107.200,327.087 107.200 C 326.174 107.200,325.652 107.039,325.798 106.803 C 326.064 106.374,325.496 105.106,325.064 105.164 C 323.762 105.341,321.599 105.125,321.778 104.836 C 322.375 103.870,321.477 103.200,319.585 103.200 C 317.890 103.200,317.640 103.091,317.528 102.303 C 317.444 101.717,317.052 101.335,316.397 101.203 C 315.654 101.053,315.407 100.761,315.444 100.078 C 315.477 99.461,315.316 99.223,314.959 99.360 C 314.666 99.473,314.316 99.388,314.183 99.172 C 314.049 98.956,313.728 98.805,313.470 98.837 C 312.196 98.994,311.172 98.748,311.230 98.300 C 311.375 97.181,311.164 96.753,310.500 96.821 C 308.056 97.070,307.200 96.805,307.200 95.800 C 307.200 94.951,307.015 94.800,305.976 94.800 C 305.256 94.800,304.855 94.634,305.002 94.397 C 305.225 94.035,304.041 92.457,303.729 92.700 C 303.019 93.252,301.131 92.670,300.799 91.797 C 300.589 91.245,300.279 90.817,300.109 90.844 C 298.142 91.165,296.846 90.740,296.727 89.736 C 296.647 89.066,296.327 88.632,295.863 88.566 C 294.948 88.434,294.767 88.257,294.636 87.367 C 294.557 86.829,294.064 86.621,292.569 86.496 C 290.596 86.331,289.915 85.886,290.259 84.990 C 290.370 84.700,290.076 84.505,289.522 84.502 C 286.561 84.485,286.400 84.428,286.400 83.400 C 286.400 82.560,286.212 82.400,285.224 82.400 C 284.014 82.400,283.224 81.792,284.068 81.511 C 284.346 81.418,284.409 81.138,284.221 80.834 C 283.960 80.412,283.836 80.416,283.556 80.857 C 283.303 81.257,283.211 81.268,283.206 80.900 C 283.202 80.584,282.610 80.400,281.600 80.400 C 280.301 80.400,280.000 80.259,280.000 79.649 C 280.000 78.640,279.280 78.158,277.621 78.058 C 276.015 77.962,276.115 78.024,275.938 77.000 C 275.827 76.359,275.402 76.160,273.800 76.000 C 272.099 75.830,271.806 75.678,271.841 74.982 C 271.871 74.382,271.611 74.142,270.863 74.080 C 269.766 73.990,269.164 73.358,269.455 72.602 C 269.575 72.287,269.008 72.107,267.745 72.060 C 265.623 71.979,265.582 71.959,265.433 70.937 C 265.335 70.269,262.331 69.403,261.579 69.826 C 261.457 69.894,261.367 69.466,261.379 68.875 C 261.396 67.991,261.222 67.799,260.400 67.794 C 259.670 67.789,259.365 67.545,259.271 66.888 C 259.201 66.393,258.976 66.091,258.771 66.218 C 258.567 66.344,258.400 66.257,258.400 66.024 C 258.400 65.787,257.593 65.600,256.576 65.600 C 255.453 65.600,254.848 65.445,255.002 65.197 C 255.402 64.549,254.311 63.779,252.845 63.675 C 251.150 63.555,250.685 63.276,250.965 62.548 C 251.115 62.157,250.808 61.902,249.992 61.738 C 249.336 61.607,248.778 61.343,248.750 61.150 C 248.722 60.958,248.678 60.588,248.650 60.329 C 248.591 59.776,246.573 59.159,245.797 59.457 C 245.227 59.675,244.255 58.279,244.681 57.853 C 244.947 57.587,244.906 57.576,243.000 57.409 C 242.340 57.351,241.595 57.281,241.343 57.252 C 241.092 57.223,240.774 56.750,240.636 56.200 C 240.410 55.301,240.184 55.200,238.392 55.200 C 236.534 55.200,236.400 55.133,236.400 54.200 C 236.400 53.400,236.200 53.200,235.400 53.200 C 234.778 53.200,234.400 52.973,234.400 52.600 C 234.400 52.270,234.209 52.000,233.976 52.000 C 233.743 52.000,233.664 51.820,233.800 51.600 C 233.952 51.354,233.280 51.200,232.050 51.200 C 230.173 51.200,230.046 51.134,229.927 50.109 C 229.814 49.138,229.623 49.009,228.200 48.945 C 227.320 48.906,226.465 48.857,226.300 48.837 C 226.135 48.817,226.000 48.350,226.000 47.800 C 226.000 47.000,225.800 46.800,225.000 46.800 C 224.450 46.800,223.978 46.620,223.950 46.400 C 223.923 46.180,223.878 45.775,223.850 45.500 C 223.796 44.965,223.644 44.927,221.228 44.850 C 219.920 44.808,219.634 44.648,219.528 43.900 C 219.419 43.132,219.121 42.982,217.500 42.878 C 215.785 42.768,215.600 42.661,215.600 41.778 C 215.600 41.001,215.394 40.800,214.600 40.800 C 214.050 40.800,213.578 40.620,213.550 40.400 C 213.523 40.180,213.478 39.835,213.450 39.633 C 213.423 39.432,213.236 39.117,213.036 38.933 C 212.822 38.737,212.793 38.847,212.966 39.200 C 213.183 39.643,213.119 39.631,212.723 39.151 C 212.427 38.793,211.739 38.500,211.193 38.499 C 209.398 38.495,209.200 38.408,209.200 37.624 C 209.200 37.197,208.992 36.719,208.738 36.562 C 208.429 36.371,208.382 36.462,208.597 36.838 C 208.856 37.293,208.814 37.304,208.379 36.900 C 208.082 36.625,207.246 36.400,206.520 36.400 C 205.489 36.400,205.200 36.233,205.200 35.639 C 205.200 35.147,204.760 34.725,203.955 34.444 C 203.093 34.144,202.782 33.824,202.943 33.405 C 203.070 33.072,203.136 32.789,203.087 32.775 C 203.039 32.761,202.100 32.651,201.000 32.531 C 198.709 32.280,198.775 32.313,198.632 31.337 C 198.518 30.563,198.428 30.530,196.227 30.450 C 195.040 30.407,194.836 30.250,194.727 29.300 C 194.611 28.296,194.426 28.183,192.600 28.000 C 191.406 27.881,190.584 27.598,190.560 27.300 C 190.466 26.129,190.351 26.000,189.400 26.000 C 188.615 26.000,188.400 25.796,188.400 25.055 C 188.400 24.343,188.178 24.108,187.500 24.103 C 184.727 24.083,184.455 23.997,184.328 23.100 C 184.216 22.316,183.929 22.184,182.100 22.079 C 180.172 21.968,180.000 21.878,180.000 20.979 C 180.000 20.073,179.853 20.000,178.035 20.000 C 176.177 20.000,176.076 20.054,176.180 21.000 M113.600 152.200 C 113.600 153.139,112.172 153.553,109.940 153.261 C 109.797 153.242,109.569 153.671,109.432 154.213 C 109.232 155.012,108.919 155.210,107.792 155.250 C 105.565 155.330,105.403 155.373,105.350 155.900 C 105.322 156.175,105.278 156.580,105.250 156.800 C 105.222 157.020,104.581 157.200,103.824 157.200 C 103.067 157.200,102.334 157.383,102.196 157.607 C 102.058 157.830,101.749 157.892,101.511 157.745 C 101.263 157.592,101.191 157.661,101.342 157.906 C 101.662 158.424,100.571 159.600,99.771 159.600 C 99.219 159.600,99.035 160.059,99.170 161.100 C 99.215 161.448,98.560 161.600,97.018 161.600 C 94.919 161.600,94.800 161.654,94.800 162.600 C 94.800 163.476,94.627 163.600,93.400 163.600 C 92.133 163.600,91.800 163.895,91.948 164.886 C 91.971 165.043,91.723 165.068,91.395 164.943 C 91.068 164.817,90.800 164.902,90.800 165.131 C 90.800 165.360,90.321 165.604,89.736 165.673 C 89.066 165.753,88.632 166.073,88.566 166.537 C 88.419 167.561,88.332 167.608,86.356 167.731 C 85.355 167.794,84.579 168.047,84.550 168.320 C 84.523 168.584,84.478 169.070,84.450 169.400 C 84.420 169.760,84.000 170.000,83.400 170.000 L 82.400 170.000 82.400 247.025 L 82.400 324.050 83.300 323.925 C 84.022 323.825,84.225 324.017,84.327 324.900 C 84.426 325.764,84.662 326.000,85.427 326.000 C 86.305 326.000,86.601 326.389,86.437 327.330 C 86.406 327.511,86.565 327.545,86.790 327.406 C 87.016 327.267,87.200 327.343,87.200 327.576 C 87.200 327.809,87.335 327.979,87.500 327.953 C 89.482 327.640,90.800 328.058,90.800 329.000 C 90.800 329.823,90.995 330.001,91.900 330.005 C 93.784 330.015,94.800 330.449,94.800 331.247 C 94.800 331.661,94.980 332.023,95.200 332.050 C 95.420 332.078,95.765 332.123,95.967 332.150 C 96.559 332.231,96.989 332.807,96.995 333.528 C 96.998 333.994,97.368 334.218,98.200 334.257 C 98.860 334.289,99.792 334.334,100.272 334.357 C 100.855 334.386,101.187 334.698,101.272 335.300 C 101.404 336.230,101.490 336.266,103.757 336.350 C 104.839 336.390,105.163 336.596,105.357 337.372 C 105.510 337.979,105.940 338.393,106.501 338.472 C 107.073 338.554,107.401 338.877,107.402 339.362 C 107.404 340.108,107.623 340.205,110.143 340.582 C 110.772 340.676,111.402 340.868,111.543 341.010 C 111.786 341.252,111.828 341.399,111.950 342.418 C 111.978 342.647,112.225 342.806,112.500 342.770 C 114.615 342.495,115.600 342.823,115.600 343.800 C 115.600 344.734,116.381 345.073,118.053 344.863 C 118.192 344.846,118.282 345.139,118.253 345.516 C 118.224 345.892,118.425 346.155,118.700 346.100 C 118.975 346.045,119.200 346.180,119.200 346.400 C 119.200 346.620,119.830 346.800,120.600 346.800 C 121.833 346.800,122.000 346.921,122.000 347.818 C 122.000 348.400,122.214 348.807,122.500 348.770 C 124.829 348.468,125.949 348.822,126.073 349.900 C 126.188 350.895,126.362 351.006,127.900 351.064 C 128.835 351.100,129.767 351.145,129.972 351.164 C 130.177 351.184,130.402 351.598,130.472 352.084 C 130.550 352.619,130.964 353.053,131.524 353.184 C 132.032 353.303,132.469 353.580,132.495 353.800 C 132.585 354.556,133.402 355.029,134.784 355.127 C 136.137 355.223,136.945 355.843,136.550 356.481 C 136.442 356.656,136.543 356.823,136.776 356.850 C 137.009 356.878,137.380 356.945,137.600 357.000 C 137.820 357.055,138.617 357.123,139.372 357.150 C 140.470 357.190,140.770 357.379,140.872 358.096 C 140.943 358.595,141.337 359.056,141.761 359.137 C 142.179 359.217,142.899 359.650,143.361 360.100 C 143.822 360.550,143.947 360.773,143.638 360.597 C 143.250 360.375,143.170 360.427,143.379 360.765 C 143.545 361.034,143.933 361.158,144.240 361.040 C 144.548 360.922,144.800 360.984,144.800 361.177 C 144.800 361.371,145.250 361.480,145.800 361.420 C 146.350 361.359,146.822 361.465,146.850 361.655 C 146.878 361.845,146.945 362.180,147.000 362.400 C 147.055 362.620,147.123 362.960,147.150 363.156 C 147.178 363.351,147.425 363.503,147.700 363.493 C 150.500 363.389,151.200 363.610,151.200 364.600 C 151.200 365.533,151.333 365.600,153.200 365.600 C 155.052 365.600,155.200 365.672,155.200 366.573 C 155.200 367.338,155.436 367.574,156.300 367.673 C 157.117 367.767,157.367 367.991,157.273 368.540 C 157.197 368.984,157.317 369.175,157.573 369.017 C 157.808 368.871,158.000 368.943,158.000 369.176 C 158.000 369.412,158.800 369.600,159.800 369.600 C 160.790 369.600,161.623 369.780,161.650 370.000 C 161.678 370.220,161.722 370.565,161.750 370.767 C 161.835 371.391,162.431 371.798,163.335 371.849 C 163.811 371.877,164.515 371.922,164.900 371.949 C 165.361 371.983,165.600 372.332,165.600 372.975 C 165.600 373.630,165.830 373.957,166.300 373.970 C 167.844 374.013,168.355 374.149,168.161 374.463 C 168.049 374.645,168.160 375.110,168.409 375.497 C 168.748 376.025,168.813 376.043,168.668 375.567 C 168.561 375.214,168.708 374.933,169.000 374.933 C 169.288 374.933,169.432 375.173,169.319 375.467 C 169.172 375.850,169.519 376.000,170.557 376.000 C 171.830 376.000,172.000 376.118,172.000 377.000 C 172.000 377.931,172.135 378.000,173.972 378.000 C 175.710 378.000,175.960 378.106,176.072 378.896 C 176.279 380.349,178.439 380.432,212.400 380.288 C 243.094 380.158,246.089 380.080,246.713 379.390 C 246.871 379.215,246.715 379.174,246.367 379.298 C 245.996 379.430,245.733 379.306,245.733 379.000 C 245.733 378.712,245.973 378.568,246.267 378.681 C 246.575 378.799,246.800 378.614,246.800 378.243 C 246.800 377.889,246.598 377.600,246.351 377.600 C 246.058 377.600,246.093 377.364,246.451 376.923 C 246.824 376.463,246.840 376.343,246.500 376.547 C 246.225 376.712,246.000 376.657,246.000 376.424 C 246.000 376.191,245.809 376.000,245.576 376.000 C 245.343 376.000,245.280 376.225,245.435 376.500 C 245.661 376.900,245.610 376.900,245.179 376.500 C 244.882 376.225,244.226 376.000,243.720 376.000 C 242.849 376.000,242.622 375.642,242.770 374.500 C 242.809 374.198,242.365 374.000,241.645 374.000 C 240.716 374.000,240.428 373.803,240.328 373.100 C 240.195 372.166,240.114 372.133,237.800 372.050 C 236.902 372.018,236.400 371.803,236.400 371.449 C 236.400 370.539,235.352 369.951,233.604 369.882 C 232.252 369.829,231.987 369.692,232.136 369.123 C 232.341 368.337,231.441 367.404,230.838 367.777 C 230.353 368.076,229.637 366.798,229.892 366.088 C 229.992 365.806,229.923 365.602,229.737 365.635 C 227.335 366.061,225.594 365.556,225.825 364.500 C 226.010 363.653,225.967 363.538,225.638 364.000 C 225.349 364.407,225.210 364.439,225.206 364.100 C 225.203 363.825,225.065 363.621,224.900 363.647 C 222.824 363.975,221.596 363.555,221.836 362.600 C 222.067 361.677,221.980 361.600,220.698 361.600 C 219.477 361.600,219.322 361.486,219.414 360.657 C 219.496 359.910,219.338 359.727,218.659 359.781 C 218.186 359.819,217.620 359.748,217.400 359.625 C 217.180 359.501,216.644 359.400,216.209 359.400 C 215.635 359.400,215.416 359.126,215.409 358.400 C 215.401 357.492,215.235 357.395,213.600 357.341 C 211.142 357.260,211.157 357.264,211.230 356.700 C 211.401 355.383,211.154 355.200,209.200 355.200 C 207.333 355.200,207.200 355.133,207.200 354.200 C 207.200 353.366,207.010 353.200,206.055 353.200 C 205.071 353.200,204.925 353.059,205.020 352.200 C 205.124 351.255,205.023 351.200,203.172 351.200 C 201.417 351.200,201.189 351.097,200.963 350.197 C 200.688 349.099,199.379 348.562,198.026 348.992 C 197.169 349.264,196.224 347.854,196.713 347.032 C 196.833 346.830,196.660 346.768,196.329 346.895 C 195.528 347.203,194.772 346.696,194.637 345.760 C 194.548 345.146,194.135 344.977,192.489 344.880 C 190.738 344.777,190.433 344.636,190.325 343.880 C 190.219 343.135,189.908 342.981,188.300 342.878 C 186.585 342.768,186.400 342.661,186.400 341.778 C 186.400 341.001,186.194 340.800,185.400 340.800 C 184.473 340.800,184.150 340.252,184.369 339.051 C 184.404 338.859,184.155 338.808,183.816 338.938 C 183.477 339.068,183.200 339.008,183.200 338.804 C 183.200 338.601,182.559 338.484,181.776 338.546 C 180.416 338.653,179.755 338.175,179.639 337.000 C 179.596 336.560,179.445 336.523,177.400 336.450 C 176.311 336.411,176.000 336.232,176.000 335.643 C 176.000 334.753,175.252 334.400,173.367 334.400 C 172.064 334.400,171.811 334.128,171.970 332.900 C 172.009 332.598,171.565 332.400,170.845 332.400 C 169.916 332.400,169.628 332.203,169.528 331.500 C 169.419 330.737,169.096 330.570,167.400 330.400 C 165.587 330.219,165.400 330.107,165.400 329.200 C 165.400 328.292,165.235 328.194,163.600 328.130 C 162.610 328.092,161.657 328.047,161.482 328.030 C 161.308 328.014,161.194 327.775,161.230 327.500 C 161.364 326.464,161.175 326.168,160.336 326.105 C 159.397 326.034,158.775 325.330,159.041 324.636 C 159.144 324.368,158.494 324.159,157.357 324.094 C 155.098 323.965,154.807 323.804,155.002 322.792 C 155.139 322.081,154.931 322.000,152.969 322.000 C 150.857 322.000,150.790 321.967,150.966 321.000 C 151.124 320.128,151.004 320.000,150.024 320.000 C 149.104 320.000,148.858 319.790,148.668 318.840 C 148.477 317.886,148.238 317.684,147.318 317.700 C 144.829 317.744,144.310 317.613,144.545 317.000 C 144.671 316.670,144.590 316.400,144.364 316.400 C 144.138 316.400,144.043 316.255,144.153 316.077 C 144.262 315.899,143.611 315.710,142.705 315.656 C 140.713 315.539,140.345 315.342,140.489 314.470 C 140.579 313.926,140.204 313.777,138.500 313.679 C 136.572 313.568,136.400 313.478,136.400 312.579 C 136.400 311.801,136.194 311.600,135.400 311.600 C 134.499 311.600,134.201 311.143,134.331 309.964 C 134.355 309.747,132.384 309.517,130.700 309.541 C 130.187 309.548,130.000 309.230,130.000 308.350 C 130.000 307.446,129.827 307.167,129.300 307.221 C 127.069 307.448,126.000 307.185,126.000 306.408 C 126.000 305.896,125.646 305.526,125.000 305.364 C 124.093 305.137,123.929 304.930,124.034 304.145 C 124.105 303.613,122.939 303.212,121.300 303.206 L 119.600 303.200 119.600 227.200 L 119.600 151.200 116.600 151.200 C 113.667 151.200,113.600 151.222,113.600 152.200 " stroke="none" fill="#fc840c" fill-rule="evenodd"></path><path id="path2" d="M176.294 67.839 C 176.132 68.001,176.000 68.460,176.000 68.859 C 176.000 69.568,175.370 69.845,173.200 70.088 C 172.511 70.165,172.160 70.480,172.072 71.100 C 171.959 71.894,171.713 72.000,169.980 72.000 C 168.218 72.000,167.989 72.103,167.764 73.000 C 167.584 73.718,167.243 74.000,166.557 74.000 C 165.803 74.000,165.600 74.212,165.600 75.000 C 165.600 75.941,164.033 76.384,161.900 76.047 C 161.735 76.021,161.600 76.450,161.600 77.000 C 161.600 77.887,161.430 78.001,160.100 78.013 C 158.342 78.028,156.995 78.890,157.337 79.781 C 157.519 80.254,157.295 80.400,156.387 80.400 C 155.734 80.400,155.221 80.535,155.247 80.700 C 155.462 82.060,155.133 82.360,153.300 82.478 C 151.679 82.582,151.381 82.732,151.272 83.500 C 151.164 84.259,150.898 84.400,149.572 84.400 C 148.707 84.400,147.865 84.413,147.700 84.428 C 147.219 84.474,146.734 85.569,147.002 86.003 C 147.144 86.233,146.731 86.400,146.024 86.400 C 144.985 86.400,144.800 86.551,144.800 87.400 C 144.800 88.213,144.594 88.409,143.700 88.446 C 143.095 88.472,142.420 88.534,142.200 88.585 C 141.980 88.636,141.575 88.706,141.300 88.739 C 141.025 88.773,140.800 89.250,140.800 89.800 C 140.800 90.709,140.645 90.801,139.100 90.806 C 137.189 90.813,136.299 91.219,136.479 92.001 C 136.545 92.292,136.150 92.642,135.600 92.781 C 134.976 92.938,134.552 93.365,134.472 93.916 C 134.360 94.691,134.101 94.800,132.372 94.800 C 130.535 94.800,130.400 94.869,130.400 95.800 C 130.400 96.748,129.244 97.154,127.458 96.833 C 126.835 96.722,126.044 97.649,126.267 98.229 C 126.387 98.543,126.241 98.821,125.943 98.846 C 125.644 98.872,125.130 98.917,124.800 98.946 C 124.461 98.977,124.145 99.478,124.073 100.100 C 123.955 101.127,123.821 101.200,122.059 101.200 C 120.423 101.200,120.162 101.313,120.107 102.045 C 120.023 103.149,120.105 103.105,117.832 103.268 C 116.618 103.355,115.793 103.621,115.680 103.961 C 115.553 104.340,115.668 104.408,116.048 104.179 C 116.516 103.897,116.517 103.949,116.051 104.523 C 115.749 104.895,115.112 105.200,114.636 105.200 C 114.042 105.200,113.750 105.465,113.707 106.045 C 113.621 107.177,113.574 107.206,111.569 107.331 C 110.097 107.422,109.788 107.591,109.578 108.420 C 109.441 108.959,109.109 109.351,108.839 109.291 C 108.137 109.136,105.201 109.973,105.252 110.314 C 105.389 111.232,105.088 111.600,104.200 111.600 C 103.400 111.600,103.200 111.800,103.200 112.600 C 103.200 113.519,103.054 113.600,101.391 113.600 C 99.850 113.600,99.515 113.748,99.127 114.600 C 98.794 115.332,98.341 115.612,97.436 115.646 C 95.247 115.728,95.080 115.788,94.969 116.537 C 94.828 117.487,94.667 117.630,93.645 117.707 C 93.052 117.751,92.800 118.041,92.800 118.678 C 92.800 119.613,92.264 119.865,89.800 120.090 C 88.843 120.178,88.606 120.382,88.632 121.100 C 88.660 121.890,88.465 122.001,87.032 122.006 C 85.452 122.012,84.296 122.419,84.366 122.945 C 84.480 123.798,84.295 124.000,83.400 124.000 C 82.600 124.000,82.400 124.200,82.400 125.000 C 82.400 125.930,82.264 126.000,80.443 126.000 C 78.524 126.000,77.622 126.664,78.222 127.636 C 78.346 127.836,77.762 128.013,76.924 128.028 C 75.270 128.059,73.923 128.463,73.970 128.916 C 74.095 130.113,73.908 130.400,73.000 130.400 C 72.206 130.400,72.000 130.601,72.000 131.379 C 72.000 132.278,71.828 132.368,69.900 132.479 C 68.139 132.580,67.800 132.724,67.798 133.367 C 67.796 134.232,67.639 134.306,65.400 134.500 C 64.520 134.576,63.778 134.855,63.750 135.119 C 63.723 135.384,63.678 135.780,63.650 136.000 C 63.623 136.220,63.150 136.400,62.600 136.400 C 61.800 136.400,61.600 136.600,61.600 137.400 C 61.600 138.346,60.674 138.723,59.059 138.434 C 58.282 138.294,57.156 138.908,57.334 139.372 C 57.687 140.293,56.996 140.753,55.115 140.850 C 54.089 140.903,53.259 141.049,53.272 141.173 C 53.391 142.356,53.099 142.800,52.200 142.800 C 51.400 142.800,51.200 143.000,51.200 143.800 C 51.200 144.709,51.045 144.801,49.500 144.806 C 47.861 144.812,46.695 145.213,46.766 145.745 C 46.880 146.598,46.696 146.800,45.804 146.800 L 44.808 146.800 44.802 224.792 L 44.796 302.784 45.698 302.982 C 46.194 303.091,47.140 303.230,47.800 303.290 C 48.697 303.372,49.000 303.602,49.000 304.200 C 49.000 304.775,49.309 305.036,50.100 305.127 C 51.093 305.241,51.428 305.759,51.247 306.900 C 51.221 307.065,51.335 307.179,51.500 307.153 C 53.453 306.844,55.155 307.272,55.272 308.100 C 55.381 308.866,55.679 309.018,57.273 309.121 C 58.983 309.231,59.168 309.344,59.405 310.421 C 59.602 311.319,59.888 311.600,60.604 311.600 C 61.263 311.600,61.583 311.860,61.672 312.469 C 61.742 312.946,62.050 313.420,62.356 313.521 C 62.715 313.639,62.804 313.530,62.607 313.212 C 62.373 312.833,62.491 312.821,63.125 313.160 C 63.578 313.402,64.319 313.600,64.774 313.600 C 65.388 313.600,65.600 313.856,65.600 314.600 C 65.600 315.545,65.720 315.600,67.800 315.600 C 69.880 315.600,70.000 315.655,70.000 316.600 C 70.000 317.400,70.200 317.600,71.000 317.600 C 71.918 317.600,72.239 318.127,72.043 319.312 C 72.015 319.484,73.794 319.599,75.996 319.568 L 80.000 319.512 80.000 243.583 L 80.000 167.653 81.100 167.527 C 81.873 167.438,82.201 167.172,82.202 166.633 C 82.204 165.768,82.361 165.694,84.600 165.500 C 85.480 165.424,86.222 165.145,86.250 164.881 C 86.278 164.616,86.323 164.220,86.350 164.000 C 86.377 163.780,87.019 163.600,87.776 163.600 C 88.533 163.600,89.266 163.417,89.404 163.193 C 89.542 162.970,89.823 162.891,90.028 163.017 C 90.232 163.144,90.400 162.877,90.400 162.424 C 90.400 161.971,90.580 161.578,90.800 161.550 C 91.020 161.523,91.380 161.455,91.600 161.400 C 91.820 161.345,92.180 161.278,92.400 161.250 C 92.620 161.222,92.779 161.065,92.753 160.900 C 92.538 159.540,92.867 159.240,94.700 159.122 C 96.321 159.018,96.619 158.868,96.728 158.100 C 96.828 157.394,97.130 157.190,98.128 157.154 C 98.828 157.128,99.580 157.066,99.800 157.015 C 100.020 156.964,100.357 156.894,100.549 156.861 C 100.741 156.827,100.651 156.495,100.349 156.123 C 99.976 155.663,99.960 155.543,100.300 155.747 C 100.575 155.912,100.800 155.857,100.800 155.624 C 100.800 155.391,101.247 155.200,101.792 155.200 C 102.517 155.200,102.852 154.931,103.036 154.200 C 103.174 153.650,103.582 153.181,103.943 153.157 C 104.305 153.134,105.140 153.089,105.800 153.057 C 106.718 153.013,107.030 152.789,107.128 152.100 C 107.198 151.605,107.513 151.178,107.828 151.150 C 108.143 151.123,108.580 151.055,108.800 151.000 C 109.020 150.945,109.630 150.878,110.157 150.850 C 110.822 150.815,111.190 150.496,111.364 149.800 C 111.607 148.834,112.710 148.501,114.740 148.779 C 115.037 148.820,115.171 148.677,115.038 148.461 C 114.904 148.245,115.021 147.977,115.298 147.865 C 115.678 147.710,115.654 147.558,115.200 147.237 C 114.609 146.818,115.599 146.575,117.100 146.770 C 117.386 146.807,117.600 146.400,117.600 145.818 C 117.600 144.859,119.127 144.417,121.293 144.750 C 121.454 144.775,121.699 144.346,121.836 143.798 C 122.027 143.039,122.348 142.800,123.177 142.800 C 123.776 142.800,124.402 142.665,124.567 142.500 C 124.732 142.335,125.077 142.196,125.333 142.190 C 125.590 142.185,125.778 141.888,125.751 141.530 C 125.720 141.116,126.119 140.796,126.851 140.650 C 127.752 140.470,128.000 140.202,128.000 139.410 C 128.000 138.507,128.169 138.395,129.600 138.350 C 132.046 138.274,132.196 138.237,132.250 137.700 C 132.278 137.425,132.322 137.020,132.350 136.800 C 132.378 136.580,132.850 136.400,133.400 136.400 C 133.950 136.400,134.403 136.175,134.406 135.900 C 134.410 135.547,134.517 135.566,134.770 135.965 C 135.070 136.440,135.239 136.418,135.829 135.829 C 136.418 135.239,136.440 135.070,135.965 134.770 C 135.591 134.533,136.110 134.410,137.500 134.406 C 138.707 134.403,139.600 134.220,139.600 133.976 C 139.600 133.743,139.808 133.681,140.062 133.838 C 140.316 133.995,140.418 133.952,140.288 133.743 C 139.797 132.948,140.752 132.209,142.500 132.031 C 142.665 132.014,142.800 131.550,142.800 131.000 C 142.800 130.073,142.939 130.000,144.715 130.000 C 146.377 130.000,146.638 129.888,146.693 129.155 C 146.777 128.043,146.748 128.060,148.813 127.915 C 149.863 127.842,150.621 127.586,150.650 127.295 C 150.678 127.023,150.722 126.620,150.750 126.400 C 150.778 126.180,151.247 126.000,151.792 126.000 C 152.517 126.000,152.852 125.731,153.036 125.000 C 153.240 124.185,153.532 124.000,154.611 124.000 C 156.433 124.000,157.200 123.643,157.200 122.795 C 157.200 122.234,157.643 122.014,159.200 121.800 C 160.970 121.557,161.200 121.414,161.200 120.562 C 161.200 119.760,161.399 119.600,162.400 119.600 C 163.413 119.600,163.600 119.444,163.600 118.600 C 163.600 117.667,163.733 117.600,165.600 117.600 C 167.467 117.600,167.600 117.533,167.600 116.600 C 167.600 115.670,167.736 115.600,169.557 115.600 C 171.310 115.600,171.539 115.496,171.764 114.600 C 171.991 113.695,172.798 113.338,174.116 113.558 C 174.835 113.678,176.048 112.703,175.844 112.169 C 175.723 111.856,175.844 111.579,176.113 111.554 C 176.381 111.528,176.870 111.483,177.200 111.454 C 177.536 111.424,177.855 110.925,177.925 110.320 C 178.040 109.320,178.203 109.231,180.125 109.120 C 182.008 109.011,182.191 108.917,182.105 108.100 C 182.012 107.221,183.310 106.873,185.540 107.179 C 185.837 107.220,185.971 107.077,185.838 106.861 C 185.704 106.645,185.821 106.377,186.098 106.265 C 186.483 106.108,186.466 105.968,186.026 105.661 C 185.588 105.356,185.776 105.231,186.826 105.131 C 187.897 105.029,188.228 104.802,188.328 104.100 C 188.434 103.352,188.720 103.192,190.028 103.150 C 192.531 103.070,192.593 103.046,192.728 102.100 C 192.798 101.605,193.068 101.179,193.328 101.154 C 193.588 101.128,193.980 101.066,194.200 101.015 C 194.420 100.964,195.095 100.894,195.700 100.861 C 196.305 100.827,196.779 100.665,196.753 100.500 C 196.543 99.174,196.867 98.800,198.224 98.800 C 199.256 98.800,199.565 98.663,199.347 98.300 C 199.143 97.960,199.263 97.976,199.723 98.349 C 200.095 98.651,200.423 98.786,200.450 98.649 C 200.478 98.512,200.545 98.220,200.600 98.000 C 200.655 97.780,200.722 97.432,200.750 97.227 C 200.778 97.021,201.279 96.796,201.864 96.727 C 202.534 96.647,202.968 96.327,203.034 95.863 C 203.181 94.838,203.268 94.792,205.244 94.670 C 206.708 94.580,207.021 94.416,207.128 93.681 C 207.199 93.190,207.553 92.786,207.928 92.769 C 208.298 92.753,208.960 92.652,209.400 92.546 C 209.840 92.440,210.395 92.334,210.633 92.310 C 210.872 92.286,211.097 92.027,211.133 91.733 C 211.170 91.440,211.230 90.961,211.267 90.668 C 211.309 90.327,211.689 90.204,212.326 90.326 C 212.970 90.449,213.225 90.365,213.053 90.086 C 212.907 89.849,212.970 89.542,213.193 89.404 C 213.417 89.266,213.600 88.893,213.600 88.576 C 213.600 87.885,212.093 86.296,211.679 86.551 C 211.518 86.651,211.182 86.297,210.931 85.765 C 210.631 85.130,210.620 84.889,210.899 85.061 C 211.155 85.219,211.205 85.132,211.026 84.843 C 210.863 84.578,210.430 84.391,210.065 84.427 C 208.224 84.608,207.367 84.349,206.995 83.500 C 206.690 82.805,206.213 82.572,204.900 82.477 C 203.398 82.368,203.200 82.240,203.200 81.377 C 203.200 80.840,203.065 80.421,202.900 80.447 C 200.496 80.827,198.800 80.346,198.800 79.285 C 198.800 78.437,198.598 78.155,197.955 78.107 C 196.933 78.030,196.772 77.887,196.631 76.937 C 196.520 76.185,196.355 76.127,194.128 76.046 C 193.130 76.010,192.828 75.806,192.728 75.100 C 192.616 74.316,192.329 74.184,190.500 74.079 C 188.572 73.968,188.400 73.878,188.400 72.979 C 188.400 72.201,188.194 72.000,187.400 72.000 C 186.501 72.000,186.209 71.556,186.328 70.373 C 186.341 70.249,185.512 70.104,184.486 70.050 C 182.314 69.938,182.459 70.022,182.270 68.776 C 182.119 67.785,177.131 67.003,176.294 67.839 M162.962 72.447 C 162.543 72.913,161.840 73.442,161.400 73.622 C 160.754 73.886,160.730 73.954,161.276 73.975 C 161.648 73.989,162.066 73.817,162.204 73.593 C 162.342 73.370,162.668 73.309,162.928 73.458 C 163.187 73.606,163.265 73.579,163.099 73.397 C 162.934 73.214,163.097 72.735,163.461 72.332 C 163.826 71.930,164.034 71.600,163.924 71.600 C 163.814 71.600,163.381 71.981,162.962 72.447 M89.388 116.820 C 89.007 117.435,89.528 117.832,90.042 117.318 C 90.329 117.031,90.336 116.807,90.062 116.639 C 89.839 116.500,89.535 116.582,89.388 116.820 M58.123 135.744 C 58.100 136.215,58.169 136.374,58.275 136.098 C 58.381 135.821,58.633 135.697,58.834 135.821 C 59.035 135.945,59.200 135.876,59.200 135.666 C 59.200 134.839,58.162 134.914,58.123 135.744 M44.800 141.267 C 44.800 141.450,44.991 141.600,45.224 141.600 C 45.457 141.600,45.518 141.825,45.359 142.100 C 45.201 142.375,45.226 142.460,45.414 142.288 C 45.983 141.771,45.946 140.933,45.355 140.933 C 45.050 140.933,44.800 141.083,44.800 141.267 M91.600 164.024 C 91.600 164.257,91.420 164.336,91.200 164.200 C 90.980 164.064,90.800 164.124,90.800 164.334 C 90.800 165.087,91.837 165.108,91.893 164.356 C 91.925 163.940,91.871 163.600,91.775 163.600 C 91.679 163.600,91.600 163.791,91.600 164.024 M124.111 281.300 C 124.198 300.553,124.218 301.000,124.982 301.001 C 125.487 301.002,125.848 301.357,125.999 302.001 C 126.146 302.632,126.559 303.047,127.116 303.128 C 127.661 303.207,128.093 303.630,128.245 304.235 C 128.380 304.774,128.695 305.190,128.945 305.160 C 131.251 304.883,132.400 305.229,132.400 306.200 C 132.400 307.133,132.533 307.200,134.400 307.200 C 136.217 307.200,136.400 307.284,136.400 308.115 C 136.400 308.775,136.649 309.049,137.294 309.097 C 137.786 309.134,138.258 309.375,138.344 309.632 C 138.705 310.715,140.067 311.600,141.372 311.600 C 142.491 311.600,142.768 311.766,142.872 312.500 C 142.954 313.073,143.291 313.415,143.800 313.441 C 144.240 313.463,145.075 313.508,145.657 313.541 C 146.425 313.584,146.782 313.873,146.964 314.600 C 147.148 315.331,147.483 315.600,148.208 315.600 C 148.753 315.600,149.200 315.791,149.200 316.024 C 149.200 316.257,149.425 316.312,149.700 316.147 C 150.075 315.922,150.070 316.007,149.681 316.488 C 149.050 317.266,149.330 317.440,151.385 317.551 C 153.222 317.650,153.223 317.651,153.304 318.727 C 153.338 319.177,153.464 319.536,153.583 319.525 C 156.049 319.301,157.153 319.653,157.273 320.700 C 157.391 321.724,157.543 321.808,159.475 321.920 C 161.263 322.024,161.567 322.161,161.675 322.920 C 161.754 323.479,162.129 323.847,162.700 323.928 C 163.195 323.998,163.623 324.223,163.650 324.428 C 163.678 324.633,163.722 325.025,163.750 325.300 C 163.804 325.838,163.952 325.874,166.427 325.950 C 167.862 325.994,168.024 326.094,167.800 326.800 C 167.657 327.251,167.733 327.622,167.973 327.650 C 168.208 327.678,168.580 327.745,168.800 327.800 C 169.020 327.855,169.830 327.923,170.600 327.950 C 171.813 327.993,172.000 328.133,172.000 329.000 C 172.000 329.800,172.200 330.000,173.000 330.000 C 173.909 330.000,174.223 330.499,174.055 331.676 C 174.013 331.973,175.300 332.466,175.859 332.366 C 177.047 332.153,177.928 332.523,178.328 333.402 C 178.580 333.954,178.923 334.383,179.093 334.355 C 180.944 334.055,182.331 334.472,182.564 335.400 C 182.747 336.126,183.084 336.400,183.795 336.400 C 184.502 336.400,184.711 336.567,184.545 337.000 C 184.418 337.330,184.524 337.600,184.781 337.600 C 185.037 337.600,185.129 337.792,184.983 338.027 C 184.838 338.261,184.963 338.420,185.260 338.379 C 187.290 338.101,188.393 338.434,188.636 339.400 C 188.883 340.384,189.785 340.662,192.100 340.468 C 192.624 340.424,192.800 340.711,192.800 341.605 C 192.800 342.262,192.935 342.779,193.100 342.753 C 195.233 342.416,196.800 342.859,196.800 343.800 C 196.800 344.644,196.987 344.800,198.000 344.800 C 199.013 344.800,199.200 344.956,199.200 345.800 C 199.200 346.350,199.335 346.779,199.500 346.753 C 201.633 346.416,203.200 346.859,203.200 347.800 C 203.200 348.733,203.333 348.800,205.200 348.800 C 207.090 348.800,207.568 349.160,207.100 350.228 C 206.931 350.613,208.381 351.259,208.814 350.992 C 209.037 350.853,209.407 351.274,209.634 351.926 C 210.001 352.978,210.224 353.109,211.612 353.078 C 213.344 353.040,213.610 353.186,213.768 354.263 C 213.882 355.037,213.972 355.070,216.172 355.150 C 217.272 355.190,217.570 355.379,217.672 356.100 C 217.764 356.744,218.112 357.036,218.900 357.127 C 219.764 357.226,220.000 357.462,220.000 358.227 C 220.000 359.128,220.148 359.200,222.000 359.200 C 223.966 359.200,224.275 359.457,224.047 360.900 C 224.021 361.065,224.315 361.221,224.700 361.246 C 227.712 361.442,228.007 361.563,228.166 362.663 C 228.251 363.251,228.690 363.424,230.336 363.521 C 232.226 363.632,232.400 363.724,232.400 364.621 C 232.400 365.399,232.606 365.600,233.400 365.600 C 233.950 365.600,234.423 365.780,234.450 366.000 C 234.478 366.220,234.523 366.625,234.550 366.900 C 234.580 367.196,235.415 367.481,236.600 367.600 C 237.794 367.719,238.616 368.002,238.640 368.300 C 238.662 368.575,238.707 368.980,238.740 369.200 C 238.773 369.420,239.688 369.600,240.773 369.600 C 242.629 369.600,242.754 369.666,242.873 370.700 C 242.943 371.305,243.225 371.822,243.500 371.850 C 243.775 371.878,244.167 371.923,244.372 371.950 C 244.577 371.978,244.802 372.403,244.872 372.897 C 244.980 373.653,245.281 373.811,246.800 373.906 C 249.263 374.060,249.573 374.218,249.318 375.193 C 249.197 375.655,249.256 376.005,249.449 375.970 C 251.340 375.623,253.153 376.064,253.272 376.900 C 253.354 377.478,253.722 377.846,254.300 377.928 C 255.112 378.043,255.273 378.253,255.166 379.055 C 254.979 380.448,261.014 380.394,261.364 379.000 C 261.607 378.034,262.710 377.701,264.740 377.979 C 265.037 378.020,265.162 377.861,265.017 377.627 C 264.871 377.392,264.963 377.200,265.219 377.200 C 265.476 377.200,265.586 376.941,265.465 376.624 C 265.312 376.226,265.575 376.011,266.322 375.924 C 267.087 375.836,267.437 375.539,267.528 374.900 C 267.640 374.109,267.889 374.000,269.585 374.000 C 271.477 374.000,272.375 373.330,271.778 372.364 C 271.654 372.164,271.923 371.978,272.376 371.950 C 272.829 371.923,273.380 371.855,273.600 371.800 C 273.820 371.745,274.191 371.678,274.424 371.650 C 274.657 371.623,274.712 371.375,274.547 371.100 C 274.322 370.725,274.407 370.730,274.888 371.119 C 275.625 371.717,276.130 371.205,275.759 370.236 C 275.568 369.739,275.785 369.600,276.757 369.600 C 277.809 369.600,278.000 369.450,278.000 368.621 C 278.000 367.722,278.172 367.632,280.100 367.521 C 281.861 367.420,282.200 367.276,282.202 366.633 C 282.204 365.768,282.361 365.694,284.600 365.500 C 285.480 365.424,286.223 365.145,286.250 364.881 C 286.278 364.616,286.322 364.220,286.350 364.000 C 286.377 363.780,287.019 363.600,287.776 363.600 C 288.533 363.600,289.266 363.417,289.404 363.193 C 289.542 362.970,289.823 362.891,290.028 363.017 C 290.232 363.144,290.400 362.776,290.400 362.200 C 290.400 361.598,290.571 361.259,290.804 361.402 C 291.431 361.790,292.881 361.187,292.666 360.628 C 292.315 359.714,292.999 359.247,294.830 359.153 C 296.298 359.077,296.651 358.912,296.699 358.284 C 296.776 357.256,296.787 357.250,298.615 357.151 C 300.670 357.040,300.950 356.866,300.319 356.088 C 299.930 355.607,299.925 355.522,300.300 355.747 C 300.575 355.912,300.800 355.857,300.800 355.624 C 300.800 355.391,301.247 355.200,301.792 355.200 C 302.517 355.200,302.852 354.931,303.036 354.200 C 303.238 353.394,303.550 353.190,304.643 353.150 C 306.910 353.066,306.996 353.030,307.128 352.100 C 307.198 351.605,307.468 351.179,307.728 351.154 C 307.988 351.128,308.380 351.066,308.600 351.015 C 308.820 350.964,309.495 350.894,310.100 350.861 C 310.990 350.812,311.200 350.609,311.200 349.800 C 311.200 348.956,311.387 348.800,312.400 348.800 C 313.413 348.800,313.600 348.644,313.600 347.800 C 313.600 346.867,313.733 346.800,315.600 346.800 C 317.467 346.800,317.600 346.733,317.600 345.800 C 317.600 344.829,318.749 344.483,321.055 344.760 C 321.305 344.790,321.623 344.361,321.762 343.807 C 321.958 343.029,322.272 342.800,323.141 342.800 C 323.760 342.800,324.402 342.665,324.567 342.500 C 324.732 342.335,325.077 342.196,325.333 342.190 C 325.590 342.185,325.774 341.862,325.741 341.472 C 325.701 340.989,326.052 340.690,326.841 340.532 C 327.729 340.354,328.000 340.078,328.000 339.350 C 328.000 338.477,328.162 338.400,329.992 338.400 C 331.784 338.400,332.010 338.299,332.236 337.400 C 332.416 336.682,332.757 336.400,333.443 336.400 C 333.970 336.400,334.403 336.175,334.406 335.900 C 334.410 335.547,334.517 335.566,334.770 335.965 C 335.070 336.440,335.239 336.418,335.829 335.829 C 336.418 335.239,336.440 335.070,335.965 334.770 C 335.574 334.522,335.862 334.410,336.900 334.406 C 338.232 334.401,338.400 334.288,338.400 333.400 C 338.400 332.452,339.556 332.046,341.342 332.367 C 341.963 332.478,342.756 331.552,342.535 330.974 C 342.281 330.313,342.799 330.087,345.000 329.897 C 346.272 329.788,346.600 329.600,346.600 328.980 C 346.600 328.426,346.919 328.163,347.700 328.073 C 348.555 327.975,348.800 327.736,348.800 327.000 C 348.800 326.264,349.045 326.025,349.900 325.927 L 351.000 325.800 351.088 305.367 L 351.176 284.933 350.025 284.082 C 349.027 283.344,348.808 283.308,348.388 283.815 C 348.121 284.137,347.466 284.400,346.934 284.400 C 346.401 284.400,345.480 284.850,344.887 285.400 C 344.293 285.950,343.412 286.400,342.928 286.400 C 342.443 286.400,341.934 286.583,341.796 286.807 C 341.658 287.030,341.377 287.109,341.172 286.983 C 340.968 286.856,340.800 287.123,340.800 287.576 C 340.800 288.029,340.575 288.421,340.300 288.446 C 338.982 288.568,338.809 288.620,338.804 288.900 C 338.793 289.654,337.090 290.800,335.981 290.800 C 335.172 290.800,334.465 291.143,333.881 291.819 C 333.396 292.379,332.515 292.874,331.923 292.919 C 331.246 292.970,330.042 293.762,328.682 295.051 C 327.045 296.603,326.265 297.075,325.480 296.989 C 324.756 296.910,324.259 297.156,323.835 297.803 C 323.501 298.313,322.636 298.855,321.914 299.007 C 321.191 299.160,320.128 299.727,319.552 300.267 C 318.937 300.844,317.992 301.265,317.265 301.286 C 316.585 301.305,316.122 301.474,316.237 301.660 C 316.353 301.847,316.257 302.000,316.024 302.000 C 315.791 302.000,315.600 302.270,315.600 302.600 C 315.600 302.973,315.222 303.200,314.600 303.200 C 314.050 303.200,313.600 303.393,313.600 303.629 C 313.600 304.417,312.544 305.125,311.166 305.260 C 310.349 305.340,309.507 305.757,309.071 306.297 C 308.670 306.794,308.006 307.200,307.595 307.200 C 307.184 307.200,306.734 307.383,306.596 307.607 C 306.458 307.830,306.165 307.902,305.945 307.766 C 305.726 307.631,305.447 307.898,305.326 308.360 C 305.206 308.822,304.859 309.200,304.556 309.200 C 304.254 309.200,303.534 309.730,302.956 310.379 C 302.228 311.196,301.460 311.595,300.453 311.679 C 299.332 311.772,299.014 311.966,299.060 312.527 C 299.093 312.926,299.035 313.169,298.932 313.065 C 298.828 312.962,298.284 313.115,297.722 313.407 C 297.160 313.698,296.452 313.841,296.148 313.725 C 295.826 313.601,294.806 314.348,293.698 315.518 C 291.891 317.428,291.359 317.678,288.457 317.985 C 288.379 317.993,288.422 318.279,288.553 318.621 C 288.684 318.962,288.633 319.144,288.441 319.025 C 288.248 318.906,287.868 319.077,287.596 319.404 C 287.324 319.732,286.464 320.000,285.684 320.000 C 284.905 320.000,284.381 320.114,284.520 320.253 C 284.869 320.603,283.024 322.000,282.213 322.000 C 281.791 322.000,281.661 322.181,281.853 322.500 C 282.057 322.840,281.937 322.824,281.477 322.451 C 281.105 322.149,280.778 322.014,280.750 322.151 C 280.723 322.288,280.655 322.580,280.600 322.800 C 280.545 323.020,280.478 323.358,280.450 323.550 C 280.423 323.743,279.831 324.014,279.136 324.153 C 278.441 324.292,277.990 324.523,278.134 324.667 C 278.567 325.100,276.870 326.052,275.600 326.088 C 274.821 326.110,274.202 326.443,273.799 327.057 C 273.398 327.670,272.636 328.081,271.593 328.247 C 270.255 328.461,270.000 328.654,270.000 329.451 C 270.000 330.239,269.796 330.400,268.800 330.400 C 268.140 330.400,267.600 330.593,267.600 330.829 C 267.600 331.683,266.426 332.400,265.029 332.400 C 264.243 332.400,263.600 332.593,263.600 332.829 C 263.600 333.642,262.383 334.470,261.094 334.535 C 260.382 334.571,259.778 334.825,259.750 335.100 C 259.723 335.375,259.678 335.780,259.650 336.000 C 259.561 336.709,258.316 336.426,257.446 335.500 C 256.981 335.005,256.060 334.538,255.400 334.461 C 254.016 334.301,253.200 333.741,253.200 332.951 C 253.200 332.605,252.753 332.400,252.000 332.400 C 250.981 332.400,250.800 332.246,250.800 331.382 C 250.800 330.800,250.586 330.393,250.300 330.430 C 248.530 330.660,246.800 330.348,246.800 329.800 C 246.800 329.470,246.575 329.197,246.300 329.194 C 245.967 329.190,246.000 329.058,246.400 328.800 C 246.933 328.455,246.933 328.406,246.400 328.355 C 246.070 328.324,245.360 328.254,244.823 328.200 C 244.286 328.146,243.469 327.629,243.008 327.051 C 242.426 326.322,241.790 326.000,240.927 326.000 C 240.123 326.000,239.351 325.649,238.742 325.007 C 238.224 324.461,237.485 324.011,237.100 324.007 C 236.669 324.003,236.400 323.693,236.400 323.200 C 236.400 322.760,236.265 322.379,236.100 322.354 C 235.935 322.329,235.308 322.250,234.706 322.179 C 234.105 322.107,233.152 321.588,232.588 321.024 C 232.025 320.461,231.162 320.000,230.671 320.000 C 229.565 320.000,228.000 318.945,228.000 318.200 C 228.000 317.834,227.423 317.604,226.300 317.523 C 224.984 317.428,224.510 317.195,224.203 316.495 C 223.984 315.996,223.585 315.674,223.314 315.778 C 222.748 315.995,221.600 314.976,221.600 314.257 C 221.600 313.989,221.015 313.731,220.300 313.682 C 219.495 313.628,218.665 313.215,218.119 312.597 C 217.508 311.905,216.825 311.600,215.887 311.600 C 214.854 311.600,214.409 311.364,214.000 310.600 C 213.450 309.572,213.361 309.529,211.513 309.397 C 210.262 309.308,209.200 308.552,209.200 307.751 C 209.200 307.434,208.787 307.200,208.228 307.200 C 207.533 307.200,207.219 306.950,207.128 306.325 C 207.030 305.652,206.676 305.414,205.600 305.298 C 204.783 305.210,203.819 304.741,203.284 304.173 C 202.724 303.579,201.918 303.200,201.213 303.200 C 200.458 303.200,199.786 302.854,199.271 302.200 C 198.839 301.650,198.106 301.200,197.642 301.200 C 196.891 301.200,196.578 300.603,196.753 299.500 C 196.796 299.228,195.021 299.060,194.642 299.300 C 194.555 299.355,194.135 299.085,193.710 298.699 C 193.284 298.314,192.805 298.128,192.646 298.287 C 192.488 298.446,192.476 298.266,192.622 297.888 C 192.788 297.455,192.685 297.177,192.343 297.139 C 192.044 297.106,191.620 297.036,191.400 296.985 C 191.180 296.934,190.710 296.872,190.355 296.846 C 190.000 296.821,189.273 296.364,188.741 295.832 C 188.188 295.279,187.182 294.807,186.395 294.732 C 185.434 294.640,184.880 294.320,184.560 293.675 C 184.307 293.166,183.988 292.761,183.851 292.775 C 182.799 292.881,182.455 292.672,182.236 291.800 C 182.029 290.978,181.742 290.800,180.621 290.800 C 179.638 290.800,179.035 290.517,178.460 289.785 C 177.982 289.178,177.138 288.704,176.360 288.605 C 175.642 288.514,174.636 287.983,174.114 287.420 C 173.559 286.822,172.720 286.395,172.084 286.387 C 170.896 286.373,169.600 285.574,169.600 284.856 C 169.600 284.605,169.150 284.400,168.600 284.400 C 167.702 284.400,167.414 283.966,167.526 282.780 C 167.537 282.659,166.924 282.518,166.162 282.467 C 164.739 282.371,163.083 281.312,163.444 280.729 C 163.556 280.548,162.930 280.400,162.053 280.400 C 160.790 280.400,160.278 280.171,159.593 279.300 C 159.117 278.695,158.564 278.178,158.364 278.150 C 158.164 278.123,157.833 278.078,157.628 278.050 C 157.423 278.022,157.198 277.595,157.128 277.100 C 157.030 276.411,156.719 276.187,155.800 276.145 C 155.140 276.114,154.184 276.069,153.676 276.045 C 153.168 276.020,152.854 275.836,152.978 275.636 C 153.101 275.436,153.087 274.971,152.946 274.603 C 152.741 274.069,152.620 274.041,152.350 274.466 C 152.097 274.866,152.011 274.874,152.006 274.500 C 152.003 274.225,151.563 274.000,151.029 274.000 C 150.470 274.000,149.725 273.576,149.271 273.000 C 148.705 272.280,148.100 272.000,147.110 272.000 C 146.053 272.000,145.612 271.769,145.200 271.000 C 144.864 270.372,144.318 270.000,143.732 270.000 C 143.135 270.000,142.800 269.764,142.800 269.344 C 142.800 268.514,141.655 267.629,140.558 267.613 C 140.096 267.606,139.278 267.195,138.742 266.700 C 138.206 266.205,137.235 265.738,136.584 265.661 C 135.214 265.501,134.400 264.937,134.400 264.151 C 134.400 263.777,133.897 263.600,132.829 263.600 C 131.630 263.600,131.072 263.363,130.471 262.600 C 129.765 261.702,129.397 261.600,126.853 261.600 L 124.022 261.600 124.111 281.300 M330.000 267.000 C 330.000 267.330,330.292 267.600,330.649 267.600 C 331.180 267.600,331.208 267.491,330.800 267.000 C 330.526 266.670,330.234 266.400,330.151 266.400 C 330.068 266.400,330.000 266.670,330.000 267.000 M294.000 269.400 C 293.592 269.891,293.620 270.000,294.151 270.000 C 294.508 270.000,294.800 269.730,294.800 269.400 C 294.800 269.070,294.732 268.800,294.649 268.800 C 294.566 268.800,294.274 269.070,294.000 269.400 M334.400 269.400 C 334.400 269.730,334.692 270.000,335.049 270.000 C 335.580 270.000,335.608 269.891,335.200 269.400 C 334.926 269.070,334.634 268.800,334.551 268.800 C 334.468 268.800,334.400 269.070,334.400 269.400 M273.200 281.800 C 272.792 282.291,272.820 282.400,273.351 282.400 C 273.708 282.400,274.000 282.130,274.000 281.800 C 274.000 281.470,273.932 281.200,273.849 281.200 C 273.766 281.200,273.474 281.470,273.200 281.800 M269.200 283.800 C 268.792 284.291,268.820 284.400,269.351 284.400 C 269.708 284.400,270.000 284.130,270.000 283.800 C 270.000 283.470,269.932 283.200,269.849 283.200 C 269.766 283.200,269.474 283.470,269.200 283.800 M119.600 302.600 C 119.600 302.930,119.892 303.200,120.249 303.200 C 120.780 303.200,120.808 303.091,120.400 302.600 C 120.126 302.270,119.834 302.000,119.751 302.000 C 119.668 302.000,119.600 302.270,119.600 302.600 M130.000 308.688 C 130.000 309.291,130.262 309.500,131.017 309.500 C 131.576 309.500,131.981 309.476,131.917 309.446 C 131.853 309.416,131.395 309.050,130.900 308.634 C 130.013 307.887,130.000 307.888,130.000 308.688 M136.400 313.000 C 136.400 313.330,136.692 313.600,137.049 313.600 C 137.580 313.600,137.608 313.491,137.200 313.000 C 136.926 312.670,136.634 312.400,136.551 312.400 C 136.468 312.400,136.400 312.670,136.400 313.000 M161.200 327.524 C 161.200 327.739,161.485 328.024,161.833 328.157 C 162.223 328.307,162.406 328.218,162.308 327.925 C 162.109 327.327,161.200 326.998,161.200 327.524 M165.373 329.500 C 165.430 329.885,165.819 330.266,166.238 330.346 C 166.987 330.491,166.987 330.479,166.238 329.646 C 165.314 328.620,165.243 328.608,165.373 329.500 M186.400 342.200 C 186.400 342.530,186.692 342.800,187.049 342.800 C 187.580 342.800,187.608 342.691,187.200 342.200 C 186.926 341.870,186.634 341.600,186.551 341.600 C 186.468 341.600,186.400 341.870,186.400 342.200 M190.400 344.200 C 190.400 344.530,190.692 344.800,191.049 344.800 C 191.580 344.800,191.608 344.691,191.200 344.200 C 190.926 343.870,190.634 343.600,190.551 343.600 C 190.468 343.600,190.400 343.870,190.400 344.200 M200.806 349.871 C 200.818 350.484,201.555 351.378,201.826 351.107 C 201.974 350.959,201.804 350.547,201.448 350.190 C 201.091 349.834,200.803 349.691,200.806 349.871 M211.200 356.724 C 211.200 356.939,211.485 357.224,211.833 357.357 C 212.223 357.507,212.406 357.418,212.308 357.125 C 212.109 356.527,211.200 356.198,211.200 356.724 M142.860 360.380 C 142.948 360.644,143.151 360.847,143.310 360.830 C 143.788 360.781,143.696 360.232,143.180 360.060 C 142.916 359.972,142.772 360.116,142.860 360.380 M225.600 365.200 C 225.600 365.420,225.870 365.600,226.200 365.600 C 226.530 365.600,226.800 365.420,226.800 365.200 C 226.800 364.980,226.530 364.800,226.200 364.800 C 225.870 364.800,225.600 364.980,225.600 365.200 M232.000 369.315 C 232.000 369.598,232.374 369.858,232.830 369.892 C 233.511 369.944,233.574 369.851,233.181 369.377 C 232.587 368.661,232.000 368.630,232.000 369.315 M236.138 370.997 C 236.392 371.545,236.833 371.995,237.119 371.997 C 237.489 371.999,237.432 371.718,236.919 371.013 C 235.987 369.732,235.547 369.723,236.138 370.997 " stroke="none" fill="#fcc32c" fill-rule="evenodd"></path></g></svg>