<svg width="1000" height="1000" xmlns="http://www.w3.org/2000/svg">

 <g>
  <title>Layer 1</title>
  <g id="svg_49">
   <g id="svg_1" stroke="#2ea6a3" fill="#2ea6a3">
    <path id="svg_2" d="m504,40l326,0l0,215l-326,0l0,-215z"/>
    <path id="svg_3" d="m504.5,40.5l325,0l0,214l-325,0l0,-214z" fill="none"/>
   </g>
   <g id="svg_4" stroke="#6dd3d9" fill="#6dd3d9">
    <path id="svg_5" d="m388,41l95,0l0,95l-95,0l0,-95z"/>
    <path id="svg_6" d="m388.5,41.5l94,0l0,94l-94,0l0,-94z" fill="none"/>
   </g>
   <g id="svg_7" stroke="#6dd3d9" fill="#6dd3d9">
    <path id="svg_8" d="m388,160l95,0l0,95l-95,0l0,-95z"/>
    <path id="svg_9" d="m388.5,160.5l94,0l0,94l-94,0l0,-94z" fill="none"/>
   </g>
   <g id="svg_10" stroke="#6dd3d9" fill="#6dd3d9">
    <path id="svg_11" d="m279,40l95,0l0,95l-95,0l0,-95z"/>
    <path id="svg_12" d="m279.5,40.5l94,0l0,94l-94,0l0,-94z" fill="none"/>
   </g>
   <g id="svg_13" stroke="#6dd3d9" fill="#6dd3d9">
    <path id="svg_14" d="m170,160l95,0l0,95l-95,0l0,-95z"/>
    <path id="svg_15" d="m170.5,160.5l94,0l0,94l-94,0l0,-94z" fill="none"/>
   </g>
   <g id="svg_16" stroke="#6dd3d9" fill="#6dd3d9">
    <path id="svg_17" d="m279,279l95,0l0,95l-95,0l0,-95z"/>
    <path id="svg_18" d="m279.5,279.5l94,0l0,94l-94,0l0,-94z" fill="none"/>
   </g>
   <g id="svg_19" stroke="#6dd3d9" fill="#6dd3d9">
    <path id="svg_20" d="m170,397l95,0l0,95l-95,0l0,-95z"/>
    <path id="svg_21" d="m170.5,397.5l94,0l0,94l-94,0l0,-94z" fill="none"/>
   </g>
   <g id="svg_22" stroke="#6dd3d9" fill="#6dd3d9">
    <path id="svg_23" d="m279,397l95,0l0,95l-95,0l0,-95z"/>
    <path id="svg_24" d="m279.5,397.5l94,0l0,94l-94,0l0,-94z" fill="none"/>
   </g>
   <g id="svg_25" stroke="#6dd3d9" fill="#6dd3d9">
    <path id="svg_26" d="m388,508l95,0l0,95l-95,0l0,-95z"/>
    <path id="svg_27" d="m388.5,508.5l94,0l0,94l-94,0l0,-94z" fill="none"/>
   </g>
   <g id="svg_28" stroke="#6dd3d9" fill="#6dd3d9">
    <path id="svg_29" d="m388,627l95,0l0,95l-95,0l0,-95z"/>
    <path id="svg_30" d="m388.5,627.5l94,0l0,94l-94,0l0,-94z" fill="none"/>
   </g>
   <g id="svg_31" stroke="#6dd3d9" fill="#6dd3d9">
    <path id="svg_32" d="m279,627l95,0l0,95l-95,0l0,-95z"/>
    <path id="svg_33" d="m279.5,627.5l94,0l0,94l-94,0l0,-94z" fill="none"/>
   </g>
   <g id="svg_34" stroke="#6dd3d9" fill="#6dd3d9">
    <path id="svg_35" d="m170,627l95,0l0,95l-95,0l0,-95z"/>
    <path id="svg_36" d="m170.5,627.5l94,0l0,94l-94,0l0,-94z" fill="none"/>
   </g>
   <g id="svg_37" stroke="#6dd3d9" fill="#6dd3d9">
    <path id="svg_38" d="m388,746l95,0l0,95l-95,0l0,-95z"/>
    <path id="svg_39" d="m388.5,746.5l94,0l0,94l-94,0l0,-94z" fill="none"/>
   </g>
   <g id="svg_40" stroke="#6dd3d9" fill="#6dd3d9">
    <path id="svg_41" d="m388,865l95,0l0,95l-95,0l0,-95z"/>
    <path id="svg_42" d="m388.5,865.5l94,0l0,94l-94,0l0,-94z" fill="none"/>
   </g>
   <g id="svg_43" stroke="#6dd3d9" fill="#6dd3d9">
    <path id="svg_44" d="m279,865l95,0l0,95l-95,0l0,-95z"/>
    <path id="svg_45" d="m279.5,865.5l94,0l0,94l-94,0l0,-94z" fill="none"/>
   </g>
   <g id="svg_46" stroke="#2ea6a3" fill="#2ea6a3">
    <path id="svg_47" d="m510,351l228,0l0,148l-228,0l0,-148z"/>
    <path id="svg_48" d="m510.5,351.5l227,0l0,147l-227,0l0,-147z" fill="none"/>
   </g>
  </g>
 </g>
</svg>