<svg id="svg" version="1.1" xmlns="http://www.w3.org/2000/svg" xmlns:xlink="http://www.w3.org/1999/xlink" width="400" height="412.37113402061857" viewBox="0, 0, 400,412.37113402061857"><g id="svgg"><path id="path0" d="M214.400 45.200 C 214.400 45.420,214.771 45.600,215.224 45.600 C 215.677 45.600,215.936 45.420,215.800 45.200 C 215.664 44.980,215.293 44.800,214.976 44.800 C 214.659 44.800,214.400 44.980,214.400 45.200 M190.305 45.483 C 190.802 45.579,191.522 45.575,191.905 45.475 C 192.287 45.375,191.880 45.296,191.000 45.301 C 190.120 45.305,189.807 45.387,190.305 45.483 M216.443 45.376 C 216.742 45.676,220.775 45.759,221.062 45.471 C 221.211 45.322,220.193 45.200,218.800 45.200 C 217.407 45.200,216.346 45.279,216.443 45.376 M221.319 46.387 C 221.030 47.495,220.104 47.696,209.234 49.019 C 203.757 49.686,196.333 51.101,191.400 52.419 C 189.640 52.890,187.660 53.419,187.000 53.596 C 159.109 61.078,130.532 82.357,112.976 108.716 C 105.799 119.492,99.071 134.027,96.167 145.030 C 93.689 154.419,92.837 158.682,91.817 166.800 C 89.992 181.311,91.188 201.424,94.659 214.600 C 96.723 222.434,99.001 229.403,101.196 234.600 C 102.556 237.821,107.224 247.176,107.847 247.930 L 108.616 248.860 109.708 248.001 C 110.877 247.081,111.075 246.061,110.347 244.701 C 110.098 244.235,109.635 242.852,109.318 241.627 C 108.790 239.590,108.463 237.989,107.268 231.600 C 106.559 227.811,106.335 220.011,106.779 214.609 C 110.629 167.768,154.090 135.256,200.000 144.874 C 229.171 150.986,253.003 174.491,259.138 203.200 C 260.932 211.598,261.000 212.215,261.000 220.200 C 261.000 228.421,260.766 230.492,258.971 238.200 C 247.769 286.281,193.573 311.802,149.467 289.766 C 147.132 288.599,146.726 288.577,145.826 289.571 C 144.837 290.664,145.273 291.209,149.413 294.064 C 168.246 307.052,190.524 315.235,212.626 317.283 C 252.576 320.986,291.101 307.533,319.350 280.016 C 341.179 258.752,354.170 233.483,359.201 202.501 C 359.460 200.907,359.818 199.513,359.996 199.403 C 360.174 199.292,360.538 198.291,360.806 197.176 C 361.166 195.676,361.443 195.208,361.875 195.374 C 362.367 195.562,362.427 195.080,362.254 192.299 C 361.766 184.449,361.154 179.065,360.598 177.733 C 360.269 176.946,360.000 175.338,360.000 174.159 C 360.000 172.981,359.744 171.338,359.431 170.508 C 359.117 169.679,358.745 168.138,358.604 167.085 C 358.462 166.031,358.088 164.552,357.773 163.798 C 357.458 163.043,357.200 161.920,357.200 161.302 C 357.200 160.684,356.957 159.823,356.659 159.389 C 356.362 158.955,356.003 157.859,355.863 156.953 C 355.722 156.047,355.337 154.787,355.006 154.153 C 354.676 153.519,354.404 152.629,354.402 152.176 C 354.401 151.724,354.136 151.004,353.813 150.576 C 353.490 150.149,353.220 149.574,353.213 149.297 C 353.189 148.358,348.532 136.910,347.153 134.400 C 346.972 134.070,345.967 132.090,344.920 130.000 C 343.873 127.910,342.541 125.480,341.960 124.600 C 341.379 123.720,340.470 122.190,339.939 121.200 C 339.409 120.210,338.444 118.590,337.795 117.600 C 337.147 116.610,336.433 115.511,336.208 115.157 C 329.927 105.266,315.722 89.328,306.823 82.188 C 305.186 80.875,303.296 79.299,302.623 78.687 C 301.950 78.075,300.680 77.086,299.800 76.488 C 298.920 75.891,298.056 75.177,297.880 74.901 C 297.704 74.626,297.363 74.400,297.121 74.400 C 296.880 74.400,295.914 73.770,294.974 73.000 C 294.034 72.230,293.159 71.600,293.029 71.600 C 292.898 71.600,291.895 70.970,290.800 70.200 C 289.705 69.430,288.725 68.800,288.624 68.800 C 288.523 68.800,287.666 68.280,286.720 67.644 C 284.851 66.388,281.963 64.747,278.200 62.803 C 276.880 62.121,275.530 61.392,275.200 61.181 C 274.870 60.971,274.150 60.620,273.600 60.401 C 273.050 60.181,272.330 59.848,272.000 59.660 C 271.670 59.471,270.770 59.032,270.000 58.683 C 266.273 56.994,264.803 56.400,264.353 56.400 C 264.084 56.400,263.579 56.168,263.231 55.885 C 262.884 55.602,261.250 54.933,259.600 54.399 C 257.950 53.865,256.372 53.262,256.093 53.059 C 255.814 52.856,254.914 52.547,254.093 52.372 C 253.272 52.197,251.700 51.763,250.600 51.407 C 249.500 51.052,247.790 50.499,246.800 50.179 C 245.810 49.858,244.617 49.597,244.149 49.598 C 243.681 49.599,242.659 49.333,241.878 49.007 C 241.098 48.681,239.411 48.296,238.130 48.152 C 236.848 48.009,235.597 47.732,235.349 47.537 C 235.100 47.342,233.297 47.035,231.340 46.855 C 229.384 46.674,227.394 46.318,226.918 46.063 C 225.384 45.242,221.561 45.463,221.319 46.387 M46.400 211.000 C 46.400 211.330,46.580 211.600,46.800 211.600 C 47.020 211.600,47.200 211.330,47.200 211.000 C 47.200 210.670,47.020 210.400,46.800 210.400 C 46.580 210.400,46.400 210.670,46.400 211.000 M200.522 361.099 C 202.899 361.170,206.679 361.169,208.922 361.098 C 211.165 361.027,209.220 360.969,204.600 360.969 C 199.980 360.970,198.145 361.028,200.522 361.099 " stroke="none" fill="#6191e7" fill-rule="evenodd"></path><path id="path1" d="M202.762 44.171 C 202.640 44.293,200.698 44.419,198.447 44.450 C 195.166 44.495,194.397 44.614,194.565 45.053 C 194.684 45.363,194.520 45.600,194.187 45.600 C 193.864 45.600,193.597 45.375,193.594 45.100 C 193.589 44.743,193.504 44.729,193.294 45.053 C 193.109 45.338,191.671 45.495,189.400 45.476 C 184.148 45.433,181.614 45.644,181.076 46.170 C 180.814 46.425,179.880 46.686,179.000 46.749 C 174.153 47.096,172.587 47.360,172.666 47.816 C 172.703 48.027,171.560 48.218,170.127 48.240 C 168.529 48.264,167.403 48.471,167.216 48.774 C 167.048 49.046,166.841 49.232,166.755 49.188 C 166.670 49.143,165.912 49.297,165.070 49.530 C 164.229 49.762,163.307 49.862,163.022 49.753 C 162.737 49.644,162.216 49.841,161.866 50.191 C 161.515 50.542,161.132 50.822,161.014 50.814 C 160.896 50.806,160.755 50.815,160.700 50.832 C 160.645 50.850,160.060 50.937,159.400 51.025 C 158.740 51.113,157.975 51.218,157.700 51.259 C 157.425 51.300,157.200 51.513,157.200 51.733 C 157.200 51.953,157.095 52.029,156.967 51.901 C 156.839 51.773,156.142 51.916,155.418 52.218 C 154.694 52.521,153.994 52.661,153.863 52.530 C 153.732 52.399,153.124 52.620,152.512 53.022 C 151.901 53.423,150.982 53.797,150.470 53.852 C 149.959 53.907,149.329 54.127,149.070 54.340 C 148.812 54.554,147.937 54.852,147.126 55.004 C 146.316 55.155,145.354 55.609,144.989 56.013 C 144.624 56.416,144.090 56.656,143.803 56.546 C 143.516 56.436,143.160 56.541,143.013 56.779 C 142.865 57.018,142.547 57.091,142.304 56.941 C 142.037 56.776,141.949 56.891,142.080 57.234 C 142.239 57.651,141.932 57.808,140.914 57.831 C 140.154 57.849,139.374 58.119,139.181 58.431 C 138.987 58.744,138.643 59.023,138.415 59.050 C 138.187 59.078,137.955 59.136,137.900 59.181 C 137.845 59.225,137.458 59.325,137.040 59.404 C 136.622 59.483,136.172 59.716,136.040 59.923 C 135.908 60.130,135.227 60.424,134.528 60.575 C 133.828 60.727,133.041 61.110,132.779 61.426 C 132.517 61.742,132.096 62.000,131.844 62.000 C 131.592 62.000,130.714 62.456,129.893 63.014 C 129.072 63.572,128.400 63.904,128.400 63.752 C 128.400 63.600,128.085 63.730,127.700 64.041 C 127.315 64.351,126.125 65.054,125.057 65.603 C 123.988 66.151,123.023 66.825,122.914 67.100 C 122.804 67.375,122.383 67.600,121.977 67.600 C 121.572 67.600,121.082 67.881,120.890 68.225 C 120.698 68.569,120.284 68.891,119.970 68.941 C 119.369 69.036,117.146 70.383,116.792 70.866 C 116.677 71.022,116.074 71.344,115.451 71.581 C 114.676 71.875,114.393 72.205,114.555 72.626 C 114.697 72.997,114.624 73.139,114.372 72.983 C 113.834 72.650,110.800 74.739,110.800 75.442 C 110.800 75.751,110.548 75.878,110.200 75.745 C 109.870 75.618,109.600 75.724,109.600 75.981 C 109.600 76.237,109.453 76.356,109.273 76.245 C 109.093 76.134,108.693 76.393,108.385 76.821 C 108.076 77.250,107.630 77.600,107.394 77.600 C 106.843 77.600,103.600 80.613,103.600 81.124 C 103.600 81.337,103.351 81.486,103.046 81.456 C 102.156 81.366,88.400 93.983,88.400 94.888 C 88.400 95.058,87.545 96.063,86.500 97.121 C 83.475 100.183,82.721 101.148,82.999 101.598 C 83.142 101.830,83.086 101.970,82.875 101.910 C 82.407 101.776,78.906 105.521,78.577 106.507 C 78.447 106.896,77.815 107.792,77.171 108.497 C 76.527 109.202,76.000 109.968,76.000 110.200 C 76.000 110.432,75.625 110.943,75.167 111.336 C 74.700 111.735,74.434 112.312,74.562 112.645 C 74.688 112.973,74.633 113.144,74.440 113.025 C 74.065 112.793,72.109 115.139,71.916 116.053 C 71.852 116.354,71.485 116.835,71.100 117.123 C 70.715 117.410,70.400 117.828,70.400 118.051 C 70.400 118.273,69.889 119.208,69.265 120.128 C 68.641 121.048,67.606 122.790,66.965 124.000 C 66.324 125.210,65.700 126.290,65.578 126.400 C 65.074 126.855,62.808 131.600,63.091 131.606 C 63.261 131.609,63.163 131.763,62.873 131.946 C 62.584 132.130,62.306 132.559,62.256 132.900 C 62.206 133.240,61.964 133.762,61.720 134.060 C 60.828 135.142,59.163 139.415,59.352 140.137 C 59.458 140.545,59.440 140.773,59.310 140.643 C 58.803 140.136,58.000 141.366,58.000 142.649 C 58.000 143.535,57.809 144.000,57.445 144.000 C 57.001 144.000,56.286 146.060,56.335 147.200 C 56.339 147.310,56.086 147.544,55.772 147.720 C 55.457 147.896,55.199 148.346,55.198 148.720 C 55.197 149.094,54.758 150.654,54.221 152.186 C 53.458 154.365,53.347 155.106,53.709 155.586 C 53.965 155.924,54.023 156.074,53.839 155.919 C 53.417 155.564,52.338 156.612,52.428 157.291 C 52.604 158.631,52.360 160.422,52.029 160.218 C 51.546 159.920,51.186 161.099,50.972 163.679 C 50.877 164.820,50.575 165.896,50.300 166.070 C 50.025 166.245,49.941 166.391,50.114 166.394 C 50.287 166.397,50.258 166.718,50.050 167.107 C 49.842 167.495,49.621 168.710,49.560 169.807 C 49.498 170.903,49.279 171.915,49.074 172.055 C 48.578 172.392,48.240 174.780,48.218 178.100 C 48.207 179.678,48.028 180.800,47.787 180.800 C 47.183 180.800,47.045 182.300,47.021 189.100 C 47.007 193.256,46.860 195.200,46.560 195.200 C 45.958 195.200,45.536 202.172,45.861 206.753 C 46.019 208.982,46.291 210.400,46.560 210.401 C 46.864 210.401,47.001 212.637,47.003 217.617 C 47.006 223.499,47.115 224.900,47.589 225.193 C 47.970 225.429,48.185 226.284,48.211 227.676 C 48.290 231.925,48.412 232.755,49.046 233.389 C 49.492 233.835,49.710 234.838,49.752 236.636 C 49.790 238.271,50.004 239.355,50.328 239.556 C 50.612 239.731,50.901 240.668,50.970 241.637 C 51.118 243.701,51.307 244.465,52.180 246.518 C 52.535 247.352,52.714 248.215,52.578 248.435 C 52.442 248.655,52.653 249.322,53.046 249.918 C 53.440 250.513,53.784 251.270,53.812 251.600 C 53.840 251.930,53.894 252.605,53.932 253.100 C 53.969 253.595,54.251 254.000,54.557 254.000 C 54.864 254.000,55.218 254.270,55.345 254.600 C 55.471 254.930,55.413 255.200,55.215 255.200 C 54.710 255.200,55.466 257.668,56.093 258.066 C 56.372 258.243,56.463 258.391,56.295 258.394 C 56.127 258.397,56.254 259.033,56.577 259.807 C 56.901 260.581,57.169 261.303,57.175 261.411 C 57.180 261.520,57.462 262.146,57.802 262.804 C 58.142 263.462,58.320 264.000,58.197 264.000 C 58.075 264.000,58.427 264.812,58.981 265.803 C 59.535 266.795,59.978 267.650,59.966 267.703 C 59.954 267.757,60.166 268.340,60.438 269.000 C 60.710 269.660,60.948 270.326,60.966 270.480 C 60.985 270.634,61.225 270.985,61.500 271.260 C 61.775 271.535,62.000 272.084,62.000 272.480 C 62.000 272.876,62.162 273.200,62.361 273.200 C 62.694 273.200,63.665 275.422,63.481 275.764 C 63.437 275.848,63.679 276.250,64.020 276.658 C 64.361 277.066,65.143 278.428,65.759 279.684 C 66.375 280.940,67.131 282.177,67.439 282.433 C 67.748 282.689,68.000 283.043,68.000 283.220 C 68.000 283.799,70.884 288.400,71.247 288.400 C 71.441 288.400,71.600 288.670,71.600 289.000 C 71.600 289.330,71.929 289.929,72.331 290.331 C 72.732 290.732,73.192 291.402,73.352 291.820 C 73.512 292.237,74.218 293.357,74.922 294.309 C 79.123 299.999,83.000 304.905,84.949 307.000 C 86.177 308.320,87.186 309.535,87.191 309.700 C 87.196 309.865,87.470 310.000,87.800 310.000 C 88.130 310.000,88.400 310.207,88.400 310.460 C 88.400 311.176,95.719 318.440,96.239 318.240 C 96.493 318.143,96.678 318.364,96.650 318.732 C 96.620 319.137,96.897 319.401,97.355 319.402 C 97.770 319.403,98.245 319.763,98.409 320.202 C 98.701 320.982,100.973 323.225,101.425 323.181 C 101.550 323.169,102.014 323.618,102.455 324.179 C 102.897 324.741,103.500 325.200,103.796 325.200 C 104.091 325.200,104.393 325.371,104.467 325.580 C 104.540 325.789,105.680 326.778,107.000 327.778 C 108.320 328.778,109.580 329.742,109.800 329.920 C 110.020 330.099,110.332 330.235,110.492 330.222 C 110.653 330.210,111.068 330.605,111.415 331.100 C 111.762 331.595,112.286 332.000,112.580 332.000 C 112.874 332.000,113.222 332.281,113.354 332.625 C 113.486 332.969,113.776 333.139,113.997 333.002 C 114.219 332.865,114.400 332.973,114.400 333.243 C 114.400 333.513,114.519 333.614,114.664 333.469 C 114.809 333.324,115.180 333.564,115.487 334.003 C 115.794 334.441,116.294 334.800,116.598 334.800 C 116.902 334.800,117.733 335.332,118.444 335.981 C 119.155 336.631,119.886 337.070,120.069 336.958 C 120.251 336.845,120.400 336.954,120.400 337.200 C 120.400 337.446,120.546 337.557,120.725 337.446 C 120.904 337.336,121.557 337.681,122.177 338.214 C 122.797 338.747,123.442 339.098,123.610 338.994 C 123.779 338.890,124.005 339.035,124.113 339.318 C 124.338 339.904,129.193 342.550,129.213 342.097 C 129.220 341.934,129.490 342.149,129.813 342.576 C 130.136 343.004,130.400 343.206,130.400 343.027 C 130.400 342.848,130.670 342.926,131.000 343.200 C 131.330 343.474,131.605 343.541,131.612 343.349 C 131.619 343.157,131.800 343.301,132.015 343.669 C 132.229 344.037,132.944 344.456,133.602 344.601 C 134.261 344.745,134.800 345.040,134.800 345.255 C 134.800 345.471,134.968 345.544,135.172 345.417 C 135.377 345.291,135.658 345.370,135.796 345.593 C 135.934 345.817,136.377 346.000,136.781 346.000 C 137.184 346.000,137.618 346.270,137.745 346.600 C 137.871 346.930,138.251 347.200,138.589 347.200 C 138.927 347.200,139.875 347.560,140.696 348.000 C 141.516 348.440,142.577 348.800,143.051 348.800 C 143.526 348.800,144.018 349.070,144.145 349.400 C 144.271 349.730,144.820 350.000,145.364 350.000 C 145.908 350.000,146.466 350.183,146.604 350.407 C 146.742 350.630,147.023 350.709,147.228 350.583 C 147.432 350.456,147.600 350.529,147.600 350.745 C 147.600 350.960,148.182 351.264,148.894 351.421 C 149.606 351.577,150.551 351.932,150.994 352.210 C 151.437 352.488,152.377 352.674,153.083 352.623 C 153.789 352.572,154.286 352.660,154.188 352.819 C 153.903 353.280,156.430 354.165,158.083 354.183 C 159.055 354.194,159.598 354.387,159.599 354.724 C 159.599 355.012,159.768 355.144,159.972 355.017 C 160.177 354.891,160.452 354.960,160.582 355.171 C 160.713 355.383,161.615 355.509,162.588 355.451 C 163.561 355.394,164.271 355.485,164.167 355.654 C 163.760 356.313,169.066 357.678,170.500 357.283 C 170.665 357.237,170.800 357.350,170.800 357.533 C 170.800 357.931,171.474 358.043,174.400 358.133 C 175.716 358.173,176.773 358.420,177.030 358.748 C 177.447 359.280,180.786 359.757,184.300 359.786 C 185.235 359.794,186.003 359.980,186.006 360.200 C 186.009 360.420,186.180 360.335,186.385 360.011 C 186.705 359.504,186.793 359.515,187.013 360.090 C 187.316 360.879,186.774 360.858,205.000 360.794 C 212.260 360.768,218.905 360.766,219.767 360.788 C 220.629 360.811,221.452 360.639,221.596 360.407 C 221.739 360.175,223.104 359.900,224.628 359.796 C 230.151 359.421,231.734 359.231,231.965 358.919 C 232.260 358.518,233.163 358.270,234.200 358.305 C 235.934 358.362,238.000 357.906,238.001 357.465 C 238.002 357.167,238.911 356.979,240.528 356.940 C 242.207 356.901,243.560 356.609,244.567 356.069 C 245.401 355.622,246.334 355.353,246.641 355.471 C 246.949 355.589,247.515 355.547,247.900 355.377 C 248.285 355.208,248.780 355.045,249.000 355.016 C 249.220 354.987,249.371 354.792,249.336 354.582 C 249.301 354.372,250.055 354.178,251.013 354.152 C 252.032 354.123,253.024 353.833,253.406 353.452 C 253.764 353.093,254.449 352.779,254.929 352.754 C 255.408 352.728,255.980 352.666,256.200 352.615 C 256.420 352.564,256.825 352.494,257.100 352.461 C 257.375 352.427,257.600 352.142,257.600 351.826 C 257.600 351.427,257.916 351.310,258.641 351.442 C 259.213 351.545,259.933 351.422,260.241 351.166 C 260.548 350.911,260.803 350.859,260.806 351.051 C 260.809 351.243,260.975 351.143,261.174 350.828 C 261.373 350.514,261.775 350.209,262.068 350.152 C 264.046 349.762,264.613 349.560,264.732 349.204 C 264.806 348.982,265.201 348.800,265.610 348.800 C 266.018 348.800,267.938 348.043,269.876 347.119 C 271.814 346.194,273.542 345.429,273.715 345.419 C 273.888 345.408,274.200 345.130,274.408 344.800 C 274.617 344.470,274.791 344.357,274.794 344.549 C 274.797 344.741,275.070 344.674,275.400 344.400 C 275.730 344.126,276.000 344.042,276.000 344.213 C 276.000 344.384,276.369 344.190,276.819 343.783 C 277.270 343.375,277.927 342.999,278.279 342.947 C 278.632 342.896,279.030 342.675,279.164 342.458 C 279.298 342.241,279.888 341.943,280.475 341.796 C 281.062 341.648,281.644 341.263,281.768 340.939 C 281.893 340.614,282.176 340.461,282.397 340.598 C 282.619 340.735,282.800 340.646,282.800 340.400 C 282.800 340.154,282.980 340.064,283.200 340.200 C 283.420 340.336,283.600 340.257,283.600 340.024 C 283.600 339.791,283.735 339.637,283.900 339.682 C 284.500 339.847,286.800 338.364,286.800 337.813 C 286.800 337.457,287.105 337.305,287.620 337.404 C 288.086 337.494,288.536 337.311,288.663 336.981 C 288.785 336.661,289.091 336.395,289.343 336.389 C 289.911 336.375,294.283 333.552,295.500 332.414 C 295.995 331.951,296.400 331.684,296.400 331.820 C 296.400 332.094,301.374 328.272,302.516 327.121 C 302.909 326.725,303.363 326.400,303.524 326.400 C 304.049 326.400,307.803 322.733,307.690 322.331 C 307.630 322.116,307.748 322.044,307.953 322.171 C 308.158 322.297,309.152 321.598,310.163 320.615 C 311.173 319.633,312.000 318.937,312.000 319.068 C 312.000 319.199,313.755 317.513,315.900 315.321 C 323.247 307.816,324.083 306.859,323.772 306.320 C 323.607 306.034,323.621 305.935,323.803 306.101 C 324.235 306.492,325.600 305.254,325.600 304.471 C 325.600 304.139,325.714 303.981,325.854 304.121 C 326.190 304.457,328.808 301.137,328.544 300.710 C 328.432 300.529,328.519 300.430,328.738 300.490 C 329.120 300.596,333.600 294.959,333.600 294.372 C 333.600 294.214,334.139 293.507,334.798 292.802 C 335.458 292.096,335.897 291.357,335.775 291.159 C 335.653 290.962,335.698 290.799,335.876 290.797 C 336.054 290.796,336.586 290.211,337.057 289.497 C 338.806 286.849,340.174 284.592,340.187 284.333 C 340.194 284.187,340.323 283.944,340.472 283.794 C 340.622 283.644,340.645 283.262,340.523 282.945 C 340.395 282.610,340.510 282.416,340.797 282.484 C 341.070 282.548,341.628 282.015,342.038 281.300 C 342.448 280.585,342.652 279.997,342.492 279.994 C 342.331 279.991,342.404 279.856,342.654 279.694 C 343.178 279.354,345.702 274.800,345.367 274.800 C 345.244 274.800,345.426 274.517,345.771 274.171 C 346.117 273.826,346.400 273.211,346.400 272.805 C 346.400 272.399,346.590 272.003,346.822 271.926 C 347.054 271.849,347.287 271.492,347.339 271.133 C 347.392 270.774,347.651 270.221,347.914 269.904 C 348.178 269.586,348.275 269.208,348.130 269.063 C 347.985 268.918,348.057 268.800,348.290 268.800 C 348.523 268.800,348.824 268.358,348.960 267.818 C 349.095 267.277,349.398 266.332,349.631 265.718 C 349.865 265.103,350.063 264.510,350.072 264.400 C 350.081 264.290,350.406 263.750,350.794 263.200 C 351.183 262.650,351.637 261.573,351.803 260.806 C 351.969 260.039,352.368 259.010,352.690 258.519 C 353.012 258.028,353.192 257.395,353.090 257.113 C 352.988 256.831,353.156 256.310,353.465 255.955 C 353.773 255.600,354.125 254.880,354.248 254.355 C 354.371 253.830,354.572 252.950,354.695 252.400 C 354.818 251.850,355.096 251.285,355.313 251.144 C 355.529 251.003,355.761 250.120,355.827 249.183 C 355.894 248.246,356.147 247.357,356.388 247.207 C 356.774 246.969,357.280 244.528,357.302 242.800 C 357.306 242.470,357.502 241.957,357.737 241.660 C 358.287 240.966,358.490 240.150,358.563 238.349 C 358.595 237.551,358.844 236.628,359.117 236.300 C 359.390 235.971,359.501 235.409,359.364 235.051 C 359.227 234.693,359.277 234.400,359.475 234.400 C 359.673 234.400,359.880 233.187,359.935 231.703 C 359.996 230.061,360.284 228.626,360.672 228.034 C 361.145 227.312,361.333 225.879,361.401 222.487 C 361.461 219.459,361.653 217.815,361.969 217.619 C 362.239 217.452,362.441 216.468,362.433 215.362 C 362.425 214.283,362.499 209.170,362.598 204.000 C 362.697 198.830,362.682 194.815,362.563 195.078 C 362.445 195.340,362.111 195.464,361.820 195.352 C 361.458 195.213,361.139 195.786,360.806 197.176 C 360.538 198.291,360.174 199.292,359.996 199.403 C 359.818 199.513,359.460 200.907,359.201 202.501 C 354.170 233.483,341.179 258.752,319.350 280.016 C 291.101 307.533,252.576 320.986,212.626 317.283 C 190.524 315.235,168.246 307.052,149.413 294.064 C 145.273 291.209,144.837 290.664,145.826 289.571 C 146.726 288.577,147.132 288.599,149.467 289.766 C 193.573 311.802,247.769 286.281,258.971 238.200 C 260.766 230.492,261.000 228.421,261.000 220.200 C 261.000 212.215,260.932 211.598,259.138 203.200 C 253.003 174.491,229.171 150.986,200.000 144.874 C 154.090 135.256,110.629 167.768,106.779 214.609 C 106.335 220.011,106.559 227.811,107.268 231.600 C 108.463 237.989,108.790 239.590,109.318 241.627 C 109.635 242.852,110.098 244.235,110.347 244.701 C 111.075 246.061,110.877 247.081,109.708 248.001 L 108.616 248.860 107.847 247.930 C 107.224 247.176,102.556 237.821,101.196 234.600 C 99.001 229.403,96.723 222.434,94.659 214.600 C 91.188 201.424,89.992 181.311,91.817 166.800 C 92.837 158.682,93.689 154.419,96.167 145.030 C 98.409 136.536,103.038 125.710,109.008 115.000 C 124.493 87.221,156.968 61.652,187.000 53.596 C 187.660 53.419,189.640 52.890,191.400 52.419 C 196.333 51.101,203.757 49.686,209.234 49.019 C 219.764 47.738,221.200 47.443,221.200 46.560 C 221.200 46.238,221.605 45.796,222.100 45.579 C 222.885 45.233,222.847 45.212,221.800 45.408 C 220.327 45.683,220.405 45.680,217.100 45.588 C 215.175 45.534,214.400 45.362,214.400 44.987 C 214.400 44.628,213.861 44.476,212.700 44.508 C 211.765 44.534,209.196 44.419,206.992 44.252 C 204.788 44.085,202.884 44.049,202.762 44.171 " stroke="none" fill="#041464" fill-rule="evenodd"></path></g></svg>