<svg width="300" height="300" xmlns="http://www.w3.org/2000/svg">

 <g>
  <title>Layer 1</title>
  <g id="svg_8">
   <path id="svg_1" fill="#f89939" d="m224.05148,202.30844c33.87,-33.867 39.498,-83.146 12.572,-110.07c-26.922,-26.921 -76.199,-21.293 -110.066,12.572c-33.867,33.866 -24.07,98.568 -12.57,110.07c9.293,9.293 76.2,21.293 110.064,-12.572z"/>
   <path id="svg_2" fill="#3499cd" d="m85.08148,153.37044c-19.648,-19.646 -48.241,-22.917 -63.867,-7.293c-15.62,15.622 -12.355,44.22 7.297,63.865c19.652,19.654 57.195,13.969 63.863,7.295c5.396,-5.387 12.361,-44.215 -7.293,-63.865l0,-0.002z"/>
   <path id="svg_3" fill="#010101" d="m149.50748,147.81544c-0.154,0 -0.385,0.053 -0.69,0.155l-9.73,3.601c-3.318,6.331 -6.143,13.25 -8.463,20.76c-2.324,7.504 -3.486,13.942 -3.486,19.303c0,3.578 0.833,6.422 2.507,8.543c1.671,2.119 3.876,3.177 6.608,3.177c2.375,0 4.871,-0.759 7.488,-2.279c2.617,-1.515 5.662,-3.873 9.133,-7.068l0,-0.045c0.412,2.4 1.398,4.422 2.969,6.062c2.135,2.22 4.937,3.33 8.41,3.33c3.117,0 5.96,-0.759 8.54,-2.279c2.487,-1.46 5.289,-3.722 8.39,-6.742c0.262,2.25 1,4.206 2.238,5.863c1.573,2.107 3.48,3.158 5.724,3.158c2.301,0 4.53,-0.865 6.686,-2.601c2.158,-1.74 4.515,-4.434 7.068,-8.084c-0.229,7.125 1.67,10.685 5.705,10.685c1.61,0 3.297,-0.585 5.059,-1.76c1.76,-1.175 4.682,-3.707 8.768,-7.587l0.002,0c3.548,-3.52 6.154,-6.815 7.814,-9.88c2.248,-0.383 4.314,-1.057 6.205,-2.028c-3.855,6.053 -5.785,10.876 -5.785,14.476c0,1.942 0.54,3.57 1.61,4.887c1.07,1.31 2.386,1.969 3.945,1.969c3.408,0 8.24,-3.048 14.48,-9.1c-0.013,0.468 -0.04,0.93 -0.04,1.404c0,1.683 0.142,4.25 0.421,7.698l8.465,-1.989c0,-2.303 0.037,-4.126 0.115,-5.476c0.13,-1.815 0.383,-3.81 0.768,-5.98c0.229,-1.279 0.816,-2.49 1.76,-3.638l2.148,-2.492a61.058,61.058 0 0 1 2.219,-2.453a42.914,42.914 0 0 1 2.144,-2.14c0.715,-0.637 1.34,-1.14 1.88,-1.497c0.585,-0.355 1.06,-0.535 1.417,-0.535c0.635,0 0.957,0.41 0.957,1.229c0,0.814 -0.602,2.73 -1.8,5.744c-2.249,5.615 -3.374,9.791 -3.374,12.523c0,2.017 0.524,3.626 1.573,4.825c1.047,1.2 2.425,1.8 4.136,1.8c4.211,0 9.27,-3.113 15.168,-9.347l0,-4.4c-4.173,4.927 -7.197,7.392 -9.064,7.392c-1.254,0 -1.881,-0.768 -1.881,-2.305c0,-1.155 0.754,-3.656 2.262,-7.51c2.193,-5.62 3.29,-9.656 3.29,-12.105c0,-1.474 -0.431,-2.706 -1.3,-3.688c-0.865,-0.98 -1.951,-1.47 -3.25,-1.47c-1.912,0 -4.1,0.894 -6.557,2.695c-2.46,1.803 -5.78,5.037 -9.969,9.71c0.613,-3.038 1.903,-7.196 3.868,-12.483l-9.344,1.798c-2.121,4.599 -3.658,8.733 -4.615,12.413a43.503,43.503 0 0 0 -1.059,5.554c-2.934,2.83 -4.823,4.557 -5.664,5.188c-0.842,0.622 -1.725,0.935 -2.643,0.935c-0.842,0 -1.513,-0.316 -2.011,-0.959c-0.496,-0.634 -0.746,-1.492 -0.746,-2.566c0,-1.147 0.219,-2.47 0.652,-3.963c0.433,-1.492 1.391,-4.308 2.871,-8.445l3.56,-9.807l-3.482,0.154c-3.168,6.028 -6.871,9.268 -11.11,9.729c1.152,-2.99 1.725,-5.286 1.725,-6.895c0,-2.044 -0.994,-3.062 -2.986,-3.062c-2.35,0 -4.195,1.117 -5.535,3.35c-1.344,2.237 -2.012,4.335 -2.012,6.304c0,1.912 1.096,3.355 3.295,4.326a50.206,50.206 0 0 1 -4.523,5.715l0,-0.008c-2.17,2.17 -3.852,3.785 -5.053,4.846c-1.201,1.06 -2.3,1.59 -3.291,1.59c-1.56,0 -2.336,-1.098 -2.336,-3.293c0,-2.093 0.871,-5.963 2.607,-11.608l3.382,-11.219l-2.148,0l-7.828,4.326c-1.277,-2.935 -3.512,-4.404 -6.705,-4.404c-2.525,0 -5.44,1.073 -8.733,3.218s-5.992,4.951 -8.101,8.424c-1.634,2.697 -2.625,5.501 -2.99,8.41c-2.934,2.935 -5.158,4.87 -6.641,5.746c-1.531,0.904 -3.138,1.358 -4.824,1.358c-4.316,0 -6.984,-2.492 -8.004,-7.469c11.235,-3.295 16.853,-7.582 16.853,-12.87c0,-1.991 -0.716,-3.598 -2.146,-4.825c-1.432,-1.225 -3.332,-1.84 -5.707,-1.84c-4.57,0 -8.733,2.19 -12.483,6.57c-3.408,3.971 -5.25,8.372 -5.566,13.194c-3.106,3.05 -5.436,5.074 -6.963,6.054c-1.558,0.996 -3.025,1.49 -4.406,1.49c-1.354,0 -2.438,-0.648 -3.256,-1.953c-0.817,-1.303 -1.225,-3.062 -1.225,-5.285c0,-0.997 0.102,-2.82 0.307,-5.476c5.106,-5.541 8.858,-10.75 11.26,-15.63c2.403,-4.876 3.601,-9.92 3.601,-15.128c0,-1.838 -0.238,-3.299 -0.71,-4.387c-0.469,-1.083 -1.08,-1.627 -1.817,-1.627l-0.001,-0.001zm-1.88,4.407c0.434,0 0.794,0.29 1.075,0.865c0.28,0.574 0.418,1.337 0.418,2.277c0,3.225 -1.007,7.074 -3.023,11.549a46.734,46.734 0 0 1 -7.891,12.121c1.736,-8.465 3.504,-15.052 5.305,-19.756c1.8,-4.705 3.176,-7.056 4.117,-7.056l-0.001,0zm53.858,20.76c1.07,0 1.924,0.4 2.565,1.206c0.635,0.803 0.957,1.922 0.957,3.35c0,3.676 -1.129,7.694 -3.389,12.049c-2.264,4.353 -4.67,6.53 -7.223,6.53c-1.049,0 -1.908,-0.428 -2.584,-1.284c-0.676,-0.856 -1.015,-1.973 -1.015,-3.354c0,-3.648 1.145,-7.644 3.43,-11.986c2.28,-4.342 4.704,-6.512 7.26,-6.512l-0.001,0.001zm-32.904,0.077c1.785,0 2.68,1.225 2.68,3.676c0,4.954 -3.27,8.348 -9.805,10.188c0,-4.113 0.765,-7.449 2.3,-10.014c1.532,-2.569 3.139,-3.85 4.825,-3.85z"/>
   <g id="svg_4" fill="#fff" font-family="Helvetica" font-size="23.08">
    <path id="svg_5" d="m167.36648,153.38044q0.09,1.014 0.507,1.555q0.767,0.98 2.66,0.98q1.127,0 1.983,-0.485q0.857,-0.495 0.857,-1.52q0,-0.778 -0.688,-1.184q-0.44,-0.248 -1.735,-0.575l-1.612,-0.406q-1.544,-0.383 -2.276,-0.856q-1.307,-0.823 -1.307,-2.276q0,-1.713 1.228,-2.773q1.24,-1.059 3.324,-1.059q2.728,0 3.933,1.6q0.755,1.014 0.733,2.186l-1.916,0q-0.056,-0.687 -0.484,-1.25q-0.7,-0.8 -2.423,-0.8q-1.15,0 -1.747,0.439q-0.586,0.44 -0.586,1.16q0,0.79 0.778,1.263q0.45,0.282 1.33,0.496l1.34,0.327q2.187,0.53 2.93,1.025q1.184,0.778 1.184,2.445q0,1.612 -1.229,2.784q-1.217,1.172 -3.719,1.172q-2.693,0 -3.82,-1.217q-1.116,-1.228 -1.194,-3.032l1.95,0l-0.001,0.001zm2.998,-8.576zm12.036,-0.057q2.04,0 3.313,0.992q1.284,0.992 1.543,3.414l-1.972,0q-0.18,-1.115 -0.822,-1.848q-0.643,-0.743 -2.063,-0.743q-1.938,0 -2.772,1.893q-0.54,1.228 -0.54,3.031q0,1.815 0.766,3.054q0.766,1.24 2.411,1.24q1.262,0 1.995,-0.767q0.744,-0.777 1.025,-2.118l1.972,0q-0.338,2.4 -1.69,3.516q-1.352,1.104 -3.46,1.104q-2.366,0 -3.775,-1.724q-1.408,-1.735 -1.408,-4.327q0,-3.178 1.543,-4.948q1.544,-1.769 3.933,-1.769l0.001,0zm-0.316,0.057zm7.201,0.349l2.062,0l0,12.013l-2.062,0l0,-12.013zm0,-4.542l2.062,0l0,2.3l-2.062,0l0,-2.3zm5.094,0l1.95,0l0,9.613l5.206,-5.127l2.592,0l-4.62,4.519l4.879,7.55l-2.592,0l-3.764,-6.085l-1.702,1.555l0,4.53l-1.95,0l0,-16.556l0.001,0.001zm11.584,4.542l2.063,0l0,12.013l-2.063,0l0,-12.013zm0,-4.542l2.063,0l0,2.3l-2.063,0l0,-2.3zm5.545,1.116l2.051,0l0,3.37l1.927,0l0,1.656l-1.927,0l0,7.877q0,0.631 0.428,0.846q0.237,0.123 0.789,0.123l0.316,0q0.169,-0.01 0.394,-0.033l0,1.6q-0.35,0.101 -0.732,0.146q-0.372,0.046 -0.812,0.046q-1.42,0 -1.927,-0.722q-0.507,-0.732 -0.507,-1.893l0,-7.99l-1.634,0l0,-1.656l1.634,0l0,-3.37z"/>
   </g>
  </g>
 </g>
</svg>