<svg width="90" height="90" xmlns="http://www.w3.org/2000/svg">

 <g>
  <title>Layer 1</title>
  <path id="svg_1" fill="#222c37" d="m71.22,39.4205l-6.833,-25.42l-25.517,6.814l-3.775,6.637l-7.647,-0.055l-18.668,18.609l18.67,18.604l7.658,-0.057l3.78,6.637l25.5,6.81l6.832,-25.418l-3.88,-6.581l3.88,-6.58zm-16,-15.9l-11.184,19.34l-22.392,0l14.094,-14.34l19.482,-5zm-11.184,25.625l11.196,19.338l-19.507,-5.012l-14.095,-14.321l22.392,0l0.014,-0.005zm5.468,-3.14l11.196,-19.34l5.413,19.34l-5.413,19.335l-11.196,-19.335z"/>
 </g>
</svg>